<mxfile host="65bd71144e">
    <diagram id="Yk0szzCXarq--dziFEVy" name="Page-1">
        <mxGraphModel dx="-547" dy="308" grid="1" gridSize="10" guides="1" tooltips="1" connect="1" arrows="1" fold="1" page="1" pageScale="1" pageWidth="1100" pageHeight="850" math="0" shadow="0">
            <root>
                <mxCell id="0"/>
                <mxCell id="1" parent="0"/>
                <mxCell id="10" value="" style="whiteSpace=wrap;html=1;aspect=fixed;rounded=0;fontSize=9;fontColor=#000000;strokeColor=#000000;strokeWidth=3;fillColor=#0000FF;gradientColor=none;" vertex="1" parent="1">
                    <mxGeometry x="1799.5" y="411.5" width="40" height="40" as="geometry"/>
                </mxCell>
                <mxCell id="9" value="" style="whiteSpace=wrap;html=1;aspect=fixed;rounded=0;fontSize=9;fontColor=#000000;strokeColor=#000000;strokeWidth=3;fillColor=#0000FF;gradientColor=none;" vertex="1" parent="1">
                    <mxGeometry x="1789.5" y="420" width="40" height="40" as="geometry"/>
                </mxCell>
                <mxCell id="8" value="" style="whiteSpace=wrap;html=1;aspect=fixed;rounded=0;fontSize=9;fontColor=#000000;strokeColor=#000000;strokeWidth=3;fillColor=#0000FF;gradientColor=none;" vertex="1" parent="1">
                    <mxGeometry x="1777" y="430" width="40" height="40" as="geometry"/>
                </mxCell>
                <mxCell id="7" value="" style="whiteSpace=wrap;html=1;aspect=fixed;rounded=0;fontSize=9;fontColor=#000000;strokeColor=#000000;strokeWidth=3;fillColor=#00FF00;gradientColor=none;" vertex="1" parent="1">
                    <mxGeometry x="1674" y="414" width="40" height="40" as="geometry"/>
                </mxCell>
                <mxCell id="6" value="" style="whiteSpace=wrap;html=1;aspect=fixed;rounded=0;fontSize=9;fontColor=#000000;strokeColor=#000000;strokeWidth=3;fillColor=#00FF00;gradientColor=none;" vertex="1" parent="1">
                    <mxGeometry x="1664" y="422.75" width="40" height="40" as="geometry"/>
                </mxCell>
                <mxCell id="5" value="" style="whiteSpace=wrap;html=1;aspect=fixed;rounded=0;fontSize=9;fontColor=#000000;strokeColor=#000000;strokeWidth=3;fillColor=#00FF00;gradientColor=none;" vertex="1" parent="1">
                    <mxGeometry x="1654" y="431.5" width="40" height="40" as="geometry"/>
                </mxCell>
                <mxCell id="4" value="" style="whiteSpace=wrap;html=1;aspect=fixed;rounded=0;fontSize=9;fontColor=#000000;strokeColor=#000000;strokeWidth=3;fillColor=#FF0000;gradientColor=none;" vertex="1" parent="1">
                    <mxGeometry x="1547" y="417.5" width="40" height="40" as="geometry"/>
                </mxCell>
                <mxCell id="3" value="" style="whiteSpace=wrap;html=1;aspect=fixed;rounded=0;fontSize=9;fontColor=#000000;strokeColor=#000000;strokeWidth=3;fillColor=#FF0000;gradientColor=none;" vertex="1" parent="1">
                    <mxGeometry x="1537" y="425" width="40" height="40" as="geometry"/>
                </mxCell>
                <mxCell id="2" value="" style="whiteSpace=wrap;html=1;aspect=fixed;rounded=0;fontSize=9;fontColor=#000000;strokeColor=#000000;strokeWidth=3;fillColor=#FF0000;gradientColor=none;" vertex="1" parent="1">
                    <mxGeometry x="1527" y="432.5" width="40" height="40" as="geometry"/>
                </mxCell>
                <mxCell id="wGU2MZA3LwLIrjLMQGGw-1" value="" style="shape=cube;whiteSpace=wrap;html=1;boundedLbl=1;backgroundOutline=1;darkOpacity=0.05;darkOpacity2=0.1;size=10;rotation=90;strokeWidth=2;fillColor=#0000FF;strokeColor=#33001A;" parent="1" vertex="1">
                    <mxGeometry x="1380" y="482.5" width="30" height="25" as="geometry"/>
                </mxCell>
                <mxCell id="wGU2MZA3LwLIrjLMQGGw-2" value="" style="shape=cube;whiteSpace=wrap;html=1;boundedLbl=1;backgroundOutline=1;darkOpacity=0.05;darkOpacity2=0.1;size=10;rotation=90;fillColor=#0000FF;strokeWidth=2;strokeColor=#33001A;" parent="1" vertex="1">
                    <mxGeometry x="1395" y="502.5" width="30" height="25" as="geometry"/>
                </mxCell>
                <mxCell id="wGU2MZA3LwLIrjLMQGGw-3" value="" style="shape=cube;whiteSpace=wrap;html=1;boundedLbl=1;backgroundOutline=1;darkOpacity=0.05;darkOpacity2=0.1;size=10;rotation=90;strokeWidth=2;fillColor=#00FF00;" parent="1" vertex="1">
                    <mxGeometry x="1370" y="492.5" width="30" height="25" as="geometry"/>
                </mxCell>
                <mxCell id="wGU2MZA3LwLIrjLMQGGw-4" value="" style="shape=cube;whiteSpace=wrap;html=1;boundedLbl=1;backgroundOutline=1;darkOpacity=0.05;darkOpacity2=0.1;size=10;rotation=90;fillColor=#0000FF;strokeWidth=2;strokeColor=#33001A;" parent="1" vertex="1">
                    <mxGeometry x="1395" y="482.5" width="30" height="25" as="geometry"/>
                </mxCell>
                <mxCell id="wGU2MZA3LwLIrjLMQGGw-5" value="" style="shape=cube;whiteSpace=wrap;html=1;boundedLbl=1;backgroundOutline=1;darkOpacity=0.05;darkOpacity2=0.1;size=10;rotation=90;fillColor=#00FF00;strokeWidth=2;" parent="1" vertex="1">
                    <mxGeometry x="1385" y="512.5" width="30" height="25" as="geometry"/>
                </mxCell>
                <mxCell id="wGU2MZA3LwLIrjLMQGGw-6" value="" style="shape=cube;whiteSpace=wrap;html=1;boundedLbl=1;backgroundOutline=1;darkOpacity=0.05;darkOpacity2=0.1;size=10;rotation=90;fillColor=#00FF00;strokeWidth=2;" parent="1" vertex="1">
                    <mxGeometry x="1385" y="492.5" width="30" height="25" as="geometry"/>
                </mxCell>
                <mxCell id="wGU2MZA3LwLIrjLMQGGw-7" value="2" style="shape=cube;whiteSpace=wrap;html=1;boundedLbl=1;backgroundOutline=1;darkOpacity=0.05;darkOpacity2=0.1;size=10;rotation=90;strokeWidth=2;fillColor=#FF0000;fontStyle=1;horizontal=0;" parent="1" vertex="1">
                    <mxGeometry x="1360" y="522.5" width="30" height="25" as="geometry"/>
                </mxCell>
                <mxCell id="wGU2MZA3LwLIrjLMQGGw-8" value="0" style="shape=cube;whiteSpace=wrap;html=1;boundedLbl=1;backgroundOutline=1;darkOpacity=0.05;darkOpacity2=0.1;size=10;rotation=90;strokeWidth=2;fillColor=#FF0000;fontStyle=1;horizontal=0;" parent="1" vertex="1">
                    <mxGeometry x="1360" y="502.5" width="30" height="25" as="geometry"/>
                </mxCell>
                <mxCell id="wGU2MZA3LwLIrjLMQGGw-9" value="3" style="shape=cube;whiteSpace=wrap;html=1;boundedLbl=1;backgroundOutline=1;darkOpacity=0.05;darkOpacity2=0.1;size=10;rotation=90;strokeWidth=2;fillColor=#FF0000;fontStyle=1;horizontal=0;" parent="1" vertex="1">
                    <mxGeometry x="1375" y="522.5" width="30" height="25" as="geometry"/>
                </mxCell>
                <mxCell id="wGU2MZA3LwLIrjLMQGGw-10" value="1" style="shape=cube;whiteSpace=wrap;html=1;boundedLbl=1;backgroundOutline=1;darkOpacity=0.05;darkOpacity2=0.1;size=10;rotation=90;strokeWidth=2;fillColor=#FF0000;fontStyle=1;horizontal=0;" parent="1" vertex="1">
                    <mxGeometry x="1375" y="502.5" width="30" height="25" as="geometry"/>
                </mxCell>
                <mxCell id="wGU2MZA3LwLIrjLMQGGw-11" value="" style="shape=cube;whiteSpace=wrap;html=1;boundedLbl=1;backgroundOutline=1;darkOpacity=0.05;darkOpacity2=0.1;size=10;rotation=90;strokeWidth=2;" parent="1" vertex="1">
                    <mxGeometry x="1365" y="100" width="90" height="85" as="geometry"/>
                </mxCell>
                <mxCell id="wGU2MZA3LwLIrjLMQGGw-12" style="edgeStyle=none;rounded=0;orthogonalLoop=1;jettySize=auto;html=1;exitX=0;exitY=0;exitDx=25;exitDy=5;exitPerimeter=0;" parent="1" source="wGU2MZA3LwLIrjLMQGGw-13" edge="1">
                    <mxGeometry relative="1" as="geometry">
                        <mxPoint x="1745" y="260" as="targetPoint"/>
                    </mxGeometry>
                </mxCell>
                <mxCell id="wGU2MZA3LwLIrjLMQGGw-13" value="" style="shape=cube;whiteSpace=wrap;html=1;boundedLbl=1;backgroundOutline=1;darkOpacity=0.05;darkOpacity2=0.1;size=10;rotation=90;fillColor=#0000FF;strokeWidth=2;fontStyle=1" parent="1" vertex="1">
                    <mxGeometry x="1425" y="160" width="30" height="25" as="geometry"/>
                </mxCell>
                <mxCell id="wGU2MZA3LwLIrjLMQGGw-14" value="" style="shape=cube;whiteSpace=wrap;html=1;boundedLbl=1;backgroundOutline=1;darkOpacity=0.05;darkOpacity2=0.1;size=10;rotation=90;fillColor=#0000FF;strokeWidth=2;fontStyle=1" parent="1" vertex="1">
                    <mxGeometry x="1425" y="140" width="30" height="25" as="geometry"/>
                </mxCell>
                <mxCell id="wGU2MZA3LwLIrjLMQGGw-15" value="" style="shape=cube;whiteSpace=wrap;html=1;boundedLbl=1;backgroundOutline=1;darkOpacity=0.05;darkOpacity2=0.1;size=10;rotation=90;strokeWidth=2;fillColor=#0000FF;fontStyle=1" parent="1" vertex="1">
                    <mxGeometry x="1425" y="120" width="30" height="25" as="geometry"/>
                </mxCell>
                <mxCell id="wGU2MZA3LwLIrjLMQGGw-16" value="" style="shape=cube;whiteSpace=wrap;html=1;boundedLbl=1;backgroundOutline=1;darkOpacity=0.05;darkOpacity2=0.1;size=10;rotation=90;strokeWidth=2;fillColor=#0000FF;" parent="1" vertex="1">
                    <mxGeometry x="1365" y="100" width="30" height="25" as="geometry"/>
                </mxCell>
                <mxCell id="wGU2MZA3LwLIrjLMQGGw-17" value="" style="shape=cube;whiteSpace=wrap;html=1;boundedLbl=1;backgroundOutline=1;darkOpacity=0.05;darkOpacity2=0.1;size=10;rotation=90;fillColor=#0000FF;strokeWidth=2;" parent="1" vertex="1">
                    <mxGeometry x="1380" y="100" width="30" height="25" as="geometry"/>
                </mxCell>
                <mxCell id="wGU2MZA3LwLIrjLMQGGw-18" value="" style="shape=cube;whiteSpace=wrap;html=1;boundedLbl=1;backgroundOutline=1;darkOpacity=0.05;darkOpacity2=0.1;size=10;rotation=90;fillColor=#0000FF;strokeWidth=2;" parent="1" vertex="1">
                    <mxGeometry x="1395" y="100" width="30" height="25" as="geometry"/>
                </mxCell>
                <mxCell id="wGU2MZA3LwLIrjLMQGGw-19" value="" style="shape=cube;whiteSpace=wrap;html=1;boundedLbl=1;backgroundOutline=1;darkOpacity=0.05;darkOpacity2=0.1;size=10;rotation=90;strokeWidth=2;fillColor=#0000FF;" parent="1" vertex="1">
                    <mxGeometry x="1410" y="100" width="30" height="25" as="geometry"/>
                </mxCell>
                <mxCell id="wGU2MZA3LwLIrjLMQGGw-20" value="" style="shape=cube;whiteSpace=wrap;html=1;boundedLbl=1;backgroundOutline=1;darkOpacity=0.05;darkOpacity2=0.1;size=10;rotation=90;fillColor=#0000FF;strokeWidth=2;" parent="1" vertex="1">
                    <mxGeometry x="1425" y="100" width="30" height="25" as="geometry"/>
                </mxCell>
                <mxCell id="wGU2MZA3LwLIrjLMQGGw-21" value="" style="endArrow=none;html=1;rounded=0;entryX=0;entryY=0;entryDx=10;entryDy=25;entryPerimeter=0;exitX=0.555;exitY=0.995;exitDx=0;exitDy=0;exitPerimeter=0;strokeWidth=2;fontStyle=1" parent="1" source="wGU2MZA3LwLIrjLMQGGw-11" target="wGU2MZA3LwLIrjLMQGGw-14" edge="1">
                    <mxGeometry width="50" height="50" relative="1" as="geometry">
                        <mxPoint x="1435" y="138" as="sourcePoint"/>
                        <mxPoint x="1485" y="188" as="targetPoint"/>
                    </mxGeometry>
                </mxCell>
                <mxCell id="wGU2MZA3LwLIrjLMQGGw-22" value="" style="endArrow=none;html=1;rounded=0;entryX=0;entryY=0;entryDx=10;entryDy=25;entryPerimeter=0;exitX=0.555;exitY=0.995;exitDx=0;exitDy=0;exitPerimeter=0;strokeWidth=2;fontStyle=1" parent="1" edge="1">
                    <mxGeometry width="50" height="50" relative="1" as="geometry">
                        <mxPoint x="1368" y="168" as="sourcePoint"/>
                        <mxPoint x="1428" y="168" as="targetPoint"/>
                    </mxGeometry>
                </mxCell>
                <mxCell id="wGU2MZA3LwLIrjLMQGGw-23" value="" style="endArrow=none;html=1;rounded=0;entryX=0.999;entryY=0.472;entryDx=0;entryDy=0;entryPerimeter=0;exitX=0.555;exitY=0.995;exitDx=0;exitDy=0;exitPerimeter=0;strokeWidth=2;fontStyle=1" parent="1" target="wGU2MZA3LwLIrjLMQGGw-11" edge="1">
                    <mxGeometry width="50" height="50" relative="1" as="geometry">
                        <mxPoint x="1412" y="128" as="sourcePoint"/>
                        <mxPoint x="1472" y="128" as="targetPoint"/>
                    </mxGeometry>
                </mxCell>
                <mxCell id="wGU2MZA3LwLIrjLMQGGw-24" value="" style="endArrow=none;html=1;rounded=0;entryX=0.999;entryY=0.472;entryDx=0;entryDy=0;entryPerimeter=0;exitX=0.555;exitY=0.995;exitDx=0;exitDy=0;exitPerimeter=0;strokeWidth=2;fontStyle=1" parent="1" edge="1">
                    <mxGeometry width="50" height="50" relative="1" as="geometry">
                        <mxPoint x="1397" y="128" as="sourcePoint"/>
                        <mxPoint x="1397" y="187" as="targetPoint"/>
                    </mxGeometry>
                </mxCell>
                <mxCell id="wGU2MZA3LwLIrjLMQGGw-25" value="" style="endArrow=none;html=1;rounded=0;entryX=0.999;entryY=0.472;entryDx=0;entryDy=0;entryPerimeter=0;exitX=0.555;exitY=0.995;exitDx=0;exitDy=0;exitPerimeter=0;strokeWidth=2;fontStyle=1" parent="1" edge="1">
                    <mxGeometry width="50" height="50" relative="1" as="geometry">
                        <mxPoint x="1382" y="128" as="sourcePoint"/>
                        <mxPoint x="1382" y="187" as="targetPoint"/>
                    </mxGeometry>
                </mxCell>
                <mxCell id="wGU2MZA3LwLIrjLMQGGw-26" value="" style="shape=cube;whiteSpace=wrap;html=1;boundedLbl=1;backgroundOutline=1;darkOpacity=0.05;darkOpacity2=0.1;size=10;rotation=90;strokeWidth=2;fontStyle=1" parent="1" vertex="1">
                    <mxGeometry x="1355" y="110" width="90" height="85" as="geometry"/>
                </mxCell>
                <mxCell id="wGU2MZA3LwLIrjLMQGGw-27" style="edgeStyle=none;rounded=0;orthogonalLoop=1;jettySize=auto;html=1;exitX=0;exitY=0;exitDx=25;exitDy=5;exitPerimeter=0;" parent="1" source="wGU2MZA3LwLIrjLMQGGw-28" edge="1">
                    <mxGeometry relative="1" as="geometry">
                        <mxPoint x="1625" y="260" as="targetPoint"/>
                    </mxGeometry>
                </mxCell>
                <mxCell id="wGU2MZA3LwLIrjLMQGGw-28" value="" style="shape=cube;whiteSpace=wrap;html=1;boundedLbl=1;backgroundOutline=1;darkOpacity=0.05;darkOpacity2=0.1;size=10;rotation=90;fillColor=#00FF00;strokeWidth=2;fontStyle=1" parent="1" vertex="1">
                    <mxGeometry x="1415" y="170" width="30" height="25" as="geometry"/>
                </mxCell>
                <mxCell id="wGU2MZA3LwLIrjLMQGGw-29" value="" style="shape=cube;whiteSpace=wrap;html=1;boundedLbl=1;backgroundOutline=1;darkOpacity=0.05;darkOpacity2=0.1;size=10;rotation=90;strokeWidth=2;fillColor=#00FF00;fontStyle=1" parent="1" vertex="1">
                    <mxGeometry x="1415" y="150" width="30" height="25" as="geometry"/>
                </mxCell>
                <mxCell id="wGU2MZA3LwLIrjLMQGGw-30" value="" style="shape=cube;whiteSpace=wrap;html=1;boundedLbl=1;backgroundOutline=1;darkOpacity=0.05;darkOpacity2=0.1;size=10;rotation=90;fillColor=#00FF00;strokeWidth=2;fontStyle=1" parent="1" vertex="1">
                    <mxGeometry x="1415" y="130" width="30" height="25" as="geometry"/>
                </mxCell>
                <mxCell id="wGU2MZA3LwLIrjLMQGGw-31" value="" style="shape=cube;whiteSpace=wrap;html=1;boundedLbl=1;backgroundOutline=1;darkOpacity=0.05;darkOpacity2=0.1;size=10;rotation=90;strokeWidth=2;fillColor=#00FF00;fontStyle=1" parent="1" vertex="1">
                    <mxGeometry x="1355" y="110" width="30" height="25" as="geometry"/>
                </mxCell>
                <mxCell id="wGU2MZA3LwLIrjLMQGGw-32" value="" style="shape=cube;whiteSpace=wrap;html=1;boundedLbl=1;backgroundOutline=1;darkOpacity=0.05;darkOpacity2=0.1;size=10;rotation=90;strokeWidth=2;fillColor=#00FF00;fontStyle=1" parent="1" vertex="1">
                    <mxGeometry x="1370" y="110" width="30" height="25" as="geometry"/>
                </mxCell>
                <mxCell id="wGU2MZA3LwLIrjLMQGGw-33" value="" style="shape=cube;whiteSpace=wrap;html=1;boundedLbl=1;backgroundOutline=1;darkOpacity=0.05;darkOpacity2=0.1;size=10;rotation=90;strokeWidth=2;fillColor=#00FF00;fontStyle=1" parent="1" vertex="1">
                    <mxGeometry x="1385" y="110" width="30" height="25" as="geometry"/>
                </mxCell>
                <mxCell id="wGU2MZA3LwLIrjLMQGGw-34" value="" style="shape=cube;whiteSpace=wrap;html=1;boundedLbl=1;backgroundOutline=1;darkOpacity=0.05;darkOpacity2=0.1;size=10;rotation=90;strokeWidth=2;fillColor=#00FF00;fontStyle=1" parent="1" vertex="1">
                    <mxGeometry x="1400" y="110" width="30" height="25" as="geometry"/>
                </mxCell>
                <mxCell id="wGU2MZA3LwLIrjLMQGGw-35" value="" style="shape=cube;whiteSpace=wrap;html=1;boundedLbl=1;backgroundOutline=1;darkOpacity=0.05;darkOpacity2=0.1;size=10;rotation=90;strokeWidth=2;fillColor=#00FF00;fontStyle=1" parent="1" vertex="1">
                    <mxGeometry x="1415" y="110" width="30" height="25" as="geometry"/>
                </mxCell>
                <mxCell id="wGU2MZA3LwLIrjLMQGGw-36" value="" style="endArrow=none;html=1;rounded=0;entryX=0;entryY=0;entryDx=10;entryDy=25;entryPerimeter=0;exitX=0.555;exitY=0.995;exitDx=0;exitDy=0;exitPerimeter=0;strokeWidth=2;fontStyle=1" parent="1" source="wGU2MZA3LwLIrjLMQGGw-26" target="wGU2MZA3LwLIrjLMQGGw-29" edge="1">
                    <mxGeometry width="50" height="50" relative="1" as="geometry">
                        <mxPoint x="1425" y="148" as="sourcePoint"/>
                        <mxPoint x="1475" y="198" as="targetPoint"/>
                    </mxGeometry>
                </mxCell>
                <mxCell id="wGU2MZA3LwLIrjLMQGGw-37" value="" style="endArrow=none;html=1;rounded=0;entryX=0;entryY=0;entryDx=10;entryDy=25;entryPerimeter=0;exitX=0.555;exitY=0.995;exitDx=0;exitDy=0;exitPerimeter=0;strokeWidth=2;fontStyle=1" parent="1" edge="1">
                    <mxGeometry width="50" height="50" relative="1" as="geometry">
                        <mxPoint x="1358" y="178" as="sourcePoint"/>
                        <mxPoint x="1418" y="178" as="targetPoint"/>
                    </mxGeometry>
                </mxCell>
                <mxCell id="wGU2MZA3LwLIrjLMQGGw-38" value="" style="endArrow=none;html=1;rounded=0;entryX=0.999;entryY=0.472;entryDx=0;entryDy=0;entryPerimeter=0;exitX=0.555;exitY=0.995;exitDx=0;exitDy=0;exitPerimeter=0;strokeWidth=2;fontStyle=1" parent="1" target="wGU2MZA3LwLIrjLMQGGw-26" edge="1">
                    <mxGeometry width="50" height="50" relative="1" as="geometry">
                        <mxPoint x="1402" y="138" as="sourcePoint"/>
                        <mxPoint x="1462" y="138" as="targetPoint"/>
                    </mxGeometry>
                </mxCell>
                <mxCell id="wGU2MZA3LwLIrjLMQGGw-39" value="" style="endArrow=none;html=1;rounded=0;entryX=0.999;entryY=0.472;entryDx=0;entryDy=0;entryPerimeter=0;exitX=0.555;exitY=0.995;exitDx=0;exitDy=0;exitPerimeter=0;strokeWidth=2;fontStyle=1" parent="1" edge="1">
                    <mxGeometry width="50" height="50" relative="1" as="geometry">
                        <mxPoint x="1387" y="138" as="sourcePoint"/>
                        <mxPoint x="1387" y="197" as="targetPoint"/>
                    </mxGeometry>
                </mxCell>
                <mxCell id="wGU2MZA3LwLIrjLMQGGw-40" value="" style="endArrow=none;html=1;rounded=0;entryX=0.999;entryY=0.472;entryDx=0;entryDy=0;entryPerimeter=0;exitX=0.555;exitY=0.995;exitDx=0;exitDy=0;exitPerimeter=0;strokeWidth=2;fontStyle=1" parent="1" edge="1">
                    <mxGeometry width="50" height="50" relative="1" as="geometry">
                        <mxPoint x="1372" y="138" as="sourcePoint"/>
                        <mxPoint x="1372" y="197" as="targetPoint"/>
                    </mxGeometry>
                </mxCell>
                <mxCell id="wGU2MZA3LwLIrjLMQGGw-41" value="" style="shape=cube;whiteSpace=wrap;html=1;boundedLbl=1;backgroundOutline=1;darkOpacity=0.05;darkOpacity2=0.1;size=10;rotation=90;strokeWidth=2;fontStyle=1" parent="1" vertex="1">
                    <mxGeometry x="1345" y="120" width="90" height="85" as="geometry"/>
                </mxCell>
                <mxCell id="wGU2MZA3LwLIrjLMQGGw-42" value="15" style="shape=cube;whiteSpace=wrap;html=1;boundedLbl=1;backgroundOutline=1;darkOpacity=0.05;darkOpacity2=0.1;size=10;rotation=90;fillColor=#FF0000;strokeWidth=2;horizontal=0;fontSize=9;fontStyle=1" parent="1" vertex="1">
                    <mxGeometry x="1345" y="180" width="30" height="25" as="geometry"/>
                </mxCell>
                <mxCell id="wGU2MZA3LwLIrjLMQGGw-43" value="16" style="shape=cube;whiteSpace=wrap;html=1;boundedLbl=1;backgroundOutline=1;darkOpacity=0.05;darkOpacity2=0.1;size=10;rotation=90;horizontal=0;strokeWidth=2;fontSize=9;fillColor=#FF0000;fontStyle=1" parent="1" vertex="1">
                    <mxGeometry x="1360" y="180" width="30" height="25" as="geometry"/>
                </mxCell>
                <mxCell id="wGU2MZA3LwLIrjLMQGGw-44" value="17" style="shape=cube;whiteSpace=wrap;html=1;boundedLbl=1;backgroundOutline=1;darkOpacity=0.05;darkOpacity2=0.1;size=10;rotation=90;horizontal=0;strokeWidth=2;fontSize=9;fillColor=#FF0000;fontStyle=1" parent="1" vertex="1">
                    <mxGeometry x="1375" y="180" width="30" height="25" as="geometry"/>
                </mxCell>
                <mxCell id="wGU2MZA3LwLIrjLMQGGw-45" value="18" style="shape=cube;whiteSpace=wrap;html=1;boundedLbl=1;backgroundOutline=1;darkOpacity=0.05;darkOpacity2=0.1;size=10;rotation=90;horizontal=0;strokeWidth=2;fontSize=9;fillColor=#FF0000;fontStyle=1" parent="1" vertex="1">
                    <mxGeometry x="1390" y="180" width="30" height="25" as="geometry"/>
                </mxCell>
                <mxCell id="wGU2MZA3LwLIrjLMQGGw-46" style="edgeStyle=none;rounded=0;orthogonalLoop=1;jettySize=auto;html=1;" parent="1" source="wGU2MZA3LwLIrjLMQGGw-47" edge="1">
                    <mxGeometry relative="1" as="geometry">
                        <mxPoint x="1515" y="260" as="targetPoint"/>
                    </mxGeometry>
                </mxCell>
                <mxCell id="wGU2MZA3LwLIrjLMQGGw-47" value="19" style="shape=cube;whiteSpace=wrap;html=1;boundedLbl=1;backgroundOutline=1;darkOpacity=0.05;darkOpacity2=0.1;size=10;rotation=90;fillColor=#FF0000;strokeWidth=2;horizontal=0;fontSize=9;fontStyle=1" parent="1" vertex="1">
                    <mxGeometry x="1405" y="180" width="30" height="25" as="geometry"/>
                </mxCell>
                <mxCell id="wGU2MZA3LwLIrjLMQGGw-48" value="10&lt;br style=&quot;font-size: 9px;&quot;&gt;" style="shape=cube;whiteSpace=wrap;html=1;boundedLbl=1;backgroundOutline=1;darkOpacity=0.05;darkOpacity2=0.1;size=10;rotation=90;horizontal=0;strokeWidth=2;fontSize=9;fillColor=#FF0000;fontStyle=1" parent="1" vertex="1">
                    <mxGeometry x="1345" y="160" width="30" height="25" as="geometry"/>
                </mxCell>
                <mxCell id="wGU2MZA3LwLIrjLMQGGw-49" value="11" style="shape=cube;whiteSpace=wrap;html=1;boundedLbl=1;backgroundOutline=1;darkOpacity=0.05;darkOpacity2=0.1;size=10;rotation=90;fillColor=#FF0000;strokeWidth=2;horizontal=0;fontStyle=1;fontSize=9;" parent="1" vertex="1">
                    <mxGeometry x="1360" y="160" width="30" height="25" as="geometry"/>
                </mxCell>
                <mxCell id="wGU2MZA3LwLIrjLMQGGw-50" value="12" style="shape=cube;whiteSpace=wrap;html=1;boundedLbl=1;backgroundOutline=1;darkOpacity=0.05;darkOpacity2=0.1;size=10;rotation=90;horizontal=0;strokeWidth=2;fontSize=9;fillColor=#FF0000;fontStyle=1" parent="1" vertex="1">
                    <mxGeometry x="1375" y="159" width="30" height="27" as="geometry"/>
                </mxCell>
                <mxCell id="wGU2MZA3LwLIrjLMQGGw-51" value="13" style="shape=cube;whiteSpace=wrap;html=1;boundedLbl=1;backgroundOutline=1;darkOpacity=0.05;darkOpacity2=0.1;size=10;rotation=90;horizontal=0;strokeWidth=2;fontSize=9;fillColor=#FF0000;fontStyle=1" parent="1" vertex="1">
                    <mxGeometry x="1390" y="160" width="30" height="25" as="geometry"/>
                </mxCell>
                <mxCell id="wGU2MZA3LwLIrjLMQGGw-52" value="5" style="shape=cube;whiteSpace=wrap;html=1;boundedLbl=1;backgroundOutline=1;darkOpacity=0.05;darkOpacity2=0.1;size=10;rotation=90;horizontal=0;strokeWidth=2;fontSize=9;fillColor=#FF0000;fontStyle=1" parent="1" vertex="1">
                    <mxGeometry x="1345" y="140" width="30" height="25" as="geometry"/>
                </mxCell>
                <mxCell id="wGU2MZA3LwLIrjLMQGGw-53" value="6" style="shape=cube;whiteSpace=wrap;html=1;boundedLbl=1;backgroundOutline=1;darkOpacity=0.05;darkOpacity2=0.1;size=10;rotation=90;horizontal=0;strokeWidth=2;fontSize=9;fillColor=#FF0000;fontStyle=1" parent="1" vertex="1">
                    <mxGeometry x="1360" y="140" width="30" height="25" as="geometry"/>
                </mxCell>
                <mxCell id="wGU2MZA3LwLIrjLMQGGw-54" value="7" style="shape=cube;whiteSpace=wrap;html=1;boundedLbl=1;backgroundOutline=1;darkOpacity=0.05;darkOpacity2=0.1;size=10;rotation=90;horizontal=0;strokeWidth=2;fontSize=9;fillColor=#FF0000;fontStyle=1" parent="1" vertex="1">
                    <mxGeometry x="1375" y="140" width="30" height="25" as="geometry"/>
                </mxCell>
                <mxCell id="wGU2MZA3LwLIrjLMQGGw-55" value="8" style="shape=cube;whiteSpace=wrap;html=1;boundedLbl=1;backgroundOutline=1;darkOpacity=0.05;darkOpacity2=0.1;size=10;rotation=90;horizontal=0;strokeWidth=2;fontSize=9;fillColor=#FF0000;fontStyle=1" parent="1" vertex="1">
                    <mxGeometry x="1390" y="140" width="30" height="25" as="geometry"/>
                </mxCell>
                <mxCell id="wGU2MZA3LwLIrjLMQGGw-56" value="0" style="shape=cube;whiteSpace=wrap;html=1;boundedLbl=1;backgroundOutline=1;darkOpacity=0.05;darkOpacity2=0.1;size=10;rotation=90;fillColor=#FF0000;strokeWidth=2;horizontal=0;fontSize=9;fontStyle=1" parent="1" vertex="1">
                    <mxGeometry x="1345" y="120" width="30" height="25" as="geometry"/>
                </mxCell>
                <mxCell id="wGU2MZA3LwLIrjLMQGGw-57" value="1" style="shape=cube;whiteSpace=wrap;html=1;boundedLbl=1;backgroundOutline=1;darkOpacity=0.05;darkOpacity2=0.1;size=10;rotation=90;horizontal=0;strokeWidth=2;fontSize=9;fillColor=#FF0000;fontStyle=1" parent="1" vertex="1">
                    <mxGeometry x="1360" y="120" width="30" height="25" as="geometry"/>
                </mxCell>
                <mxCell id="wGU2MZA3LwLIrjLMQGGw-58" value="2" style="shape=cube;whiteSpace=wrap;html=1;boundedLbl=1;backgroundOutline=1;darkOpacity=0.05;darkOpacity2=0.1;size=10;rotation=90;fillColor=#FF0000;strokeWidth=2;horizontal=0;fontSize=9;fontStyle=1" parent="1" vertex="1">
                    <mxGeometry x="1375" y="120" width="30" height="25" as="geometry"/>
                </mxCell>
                <mxCell id="wGU2MZA3LwLIrjLMQGGw-59" value="3" style="shape=cube;whiteSpace=wrap;html=1;boundedLbl=1;backgroundOutline=1;darkOpacity=0.05;darkOpacity2=0.1;size=10;rotation=90;horizontal=0;strokeWidth=2;fontSize=9;fillColor=#FF0000;fontStyle=1" parent="1" vertex="1">
                    <mxGeometry x="1390" y="120" width="30" height="25" as="geometry"/>
                </mxCell>
                <mxCell id="wGU2MZA3LwLIrjLMQGGw-60" value="14" style="shape=cube;whiteSpace=wrap;html=1;boundedLbl=1;backgroundOutline=1;darkOpacity=0.05;darkOpacity2=0.1;size=10;rotation=90;horizontal=0;strokeWidth=2;fontSize=9;fillColor=#FF0000;fontStyle=1" parent="1" vertex="1">
                    <mxGeometry x="1405" y="160" width="30" height="25" as="geometry"/>
                </mxCell>
                <mxCell id="wGU2MZA3LwLIrjLMQGGw-61" value="9" style="shape=cube;whiteSpace=wrap;html=1;boundedLbl=1;backgroundOutline=1;darkOpacity=0.05;darkOpacity2=0.1;size=10;rotation=90;fillColor=#FF0000;strokeWidth=2;horizontal=0;fontSize=9;fontStyle=1" parent="1" vertex="1">
                    <mxGeometry x="1405" y="140" width="30" height="25" as="geometry"/>
                </mxCell>
                <mxCell id="wGU2MZA3LwLIrjLMQGGw-62" value="4" style="shape=cube;whiteSpace=wrap;html=1;boundedLbl=1;backgroundOutline=1;darkOpacity=0.05;darkOpacity2=0.1;size=10;rotation=90;horizontal=0;strokeWidth=2;fontSize=9;fillColor=#FF0000;fontStyle=1" parent="1" vertex="1">
                    <mxGeometry x="1405" y="120" width="30" height="25" as="geometry"/>
                </mxCell>
                <mxCell id="wGU2MZA3LwLIrjLMQGGw-63" value="0" style="rounded=0;whiteSpace=wrap;html=1;fontSize=9;fontColor=#000000;strokeColor=#000000;strokeWidth=0;fillColor=#FF0000;gradientColor=none;fontStyle=1" parent="1" vertex="1">
                    <mxGeometry x="1497" y="270" width="20" height="20" as="geometry"/>
                </mxCell>
                <mxCell id="wGU2MZA3LwLIrjLMQGGw-64" value="1" style="rounded=0;whiteSpace=wrap;html=1;fontSize=9;fontColor=#000000;strokeColor=#000000;strokeWidth=0;fillColor=#FF0000;gradientColor=none;fontStyle=1" parent="1" vertex="1">
                    <mxGeometry x="1517" y="270" width="20" height="20" as="geometry"/>
                </mxCell>
                <mxCell id="wGU2MZA3LwLIrjLMQGGw-65" value="2" style="rounded=0;whiteSpace=wrap;html=1;fontSize=9;fontColor=#000000;strokeColor=#000000;strokeWidth=0;fillColor=#FF0000;gradientColor=none;fontStyle=1" parent="1" vertex="1">
                    <mxGeometry x="1537" y="270" width="20" height="20" as="geometry"/>
                </mxCell>
                <mxCell id="wGU2MZA3LwLIrjLMQGGw-66" value="3" style="rounded=0;whiteSpace=wrap;html=1;fontSize=9;fontColor=#000000;strokeColor=#000000;strokeWidth=0;fillColor=#FF0000;gradientColor=none;fontStyle=1" parent="1" vertex="1">
                    <mxGeometry x="1557" y="270" width="20" height="20" as="geometry"/>
                </mxCell>
                <mxCell id="wGU2MZA3LwLIrjLMQGGw-67" value="4" style="rounded=0;whiteSpace=wrap;html=1;fontSize=9;fontColor=#000000;strokeColor=#000000;strokeWidth=0;fillColor=#FF0000;gradientColor=none;fontStyle=1" parent="1" vertex="1">
                    <mxGeometry x="1577" y="270" width="20" height="20" as="geometry"/>
                </mxCell>
                <mxCell id="wGU2MZA3LwLIrjLMQGGw-68" value="5" style="rounded=0;whiteSpace=wrap;html=1;fontSize=9;fontColor=#000000;strokeColor=#000000;strokeWidth=0;fillColor=#FF0000;gradientColor=none;fontStyle=1" parent="1" vertex="1">
                    <mxGeometry x="1497" y="290" width="20" height="20" as="geometry"/>
                </mxCell>
                <mxCell id="wGU2MZA3LwLIrjLMQGGw-69" value="6" style="rounded=0;whiteSpace=wrap;html=1;fontSize=9;fontColor=#000000;strokeColor=#000000;strokeWidth=0;fillColor=#FF0000;gradientColor=none;fontStyle=1" parent="1" vertex="1">
                    <mxGeometry x="1517" y="290" width="20" height="20" as="geometry"/>
                </mxCell>
                <mxCell id="wGU2MZA3LwLIrjLMQGGw-70" value="7" style="rounded=0;whiteSpace=wrap;html=1;fontSize=9;fontColor=#000000;strokeColor=#000000;strokeWidth=0;fillColor=#FF0000;gradientColor=none;fontStyle=1" parent="1" vertex="1">
                    <mxGeometry x="1537" y="290" width="20" height="20" as="geometry"/>
                </mxCell>
                <mxCell id="wGU2MZA3LwLIrjLMQGGw-71" value="8" style="rounded=0;whiteSpace=wrap;html=1;fontSize=9;fontColor=#000000;strokeColor=#000000;strokeWidth=0;fillColor=#FF0000;gradientColor=none;fontStyle=1" parent="1" vertex="1">
                    <mxGeometry x="1557" y="290" width="20" height="20" as="geometry"/>
                </mxCell>
                <mxCell id="wGU2MZA3LwLIrjLMQGGw-72" value="9" style="rounded=0;whiteSpace=wrap;html=1;fontSize=9;fontColor=#000000;strokeColor=#000000;strokeWidth=0;fillColor=#FF0000;gradientColor=none;fontStyle=1" parent="1" vertex="1">
                    <mxGeometry x="1577" y="290" width="20" height="20" as="geometry"/>
                </mxCell>
                <mxCell id="wGU2MZA3LwLIrjLMQGGw-73" value="10" style="rounded=0;whiteSpace=wrap;html=1;fontSize=9;fontColor=#000000;strokeColor=#000000;strokeWidth=0;fillColor=#FF0000;gradientColor=none;fontStyle=1" parent="1" vertex="1">
                    <mxGeometry x="1497" y="310" width="20" height="20" as="geometry"/>
                </mxCell>
                <mxCell id="wGU2MZA3LwLIrjLMQGGw-74" value="11" style="rounded=0;whiteSpace=wrap;html=1;fontSize=9;fontColor=#000000;strokeColor=#000000;strokeWidth=0;fillColor=#FF0000;gradientColor=none;fontStyle=1" parent="1" vertex="1">
                    <mxGeometry x="1517" y="310" width="20" height="20" as="geometry"/>
                </mxCell>
                <mxCell id="wGU2MZA3LwLIrjLMQGGw-75" value="12" style="rounded=0;whiteSpace=wrap;html=1;fontSize=9;fontColor=#000000;strokeColor=#000000;strokeWidth=0;fillColor=#FF0000;gradientColor=none;fontStyle=1" parent="1" vertex="1">
                    <mxGeometry x="1537" y="310" width="20" height="20" as="geometry"/>
                </mxCell>
                <mxCell id="wGU2MZA3LwLIrjLMQGGw-76" value="13" style="rounded=0;whiteSpace=wrap;html=1;fontSize=9;fontColor=#000000;strokeColor=#000000;strokeWidth=0;fillColor=#FF0000;gradientColor=none;fontStyle=1" parent="1" vertex="1">
                    <mxGeometry x="1557" y="310" width="20" height="20" as="geometry"/>
                </mxCell>
                <mxCell id="wGU2MZA3LwLIrjLMQGGw-77" value="14" style="rounded=0;whiteSpace=wrap;html=1;fontSize=9;fontColor=#000000;strokeColor=#000000;strokeWidth=0;fillColor=#FF0000;gradientColor=none;fontStyle=1" parent="1" vertex="1">
                    <mxGeometry x="1577" y="310" width="20" height="20" as="geometry"/>
                </mxCell>
                <mxCell id="wGU2MZA3LwLIrjLMQGGw-78" value="15" style="rounded=0;whiteSpace=wrap;html=1;fontSize=9;fontColor=#000000;strokeColor=#000000;strokeWidth=0;fillColor=#FF0000;gradientColor=none;fontStyle=1" parent="1" vertex="1">
                    <mxGeometry x="1497" y="330" width="20" height="20" as="geometry"/>
                </mxCell>
                <mxCell id="wGU2MZA3LwLIrjLMQGGw-79" value="16" style="rounded=0;whiteSpace=wrap;html=1;fontSize=9;fontColor=#000000;strokeColor=#000000;strokeWidth=0;fillColor=#FF0000;gradientColor=none;fontStyle=1" parent="1" vertex="1">
                    <mxGeometry x="1517" y="330" width="20" height="20" as="geometry"/>
                </mxCell>
                <mxCell id="wGU2MZA3LwLIrjLMQGGw-80" value="17" style="rounded=0;whiteSpace=wrap;html=1;fontSize=9;fontColor=#000000;strokeColor=#000000;strokeWidth=0;fillColor=#FF0000;gradientColor=none;fontStyle=1" parent="1" vertex="1">
                    <mxGeometry x="1537" y="330" width="20" height="20" as="geometry"/>
                </mxCell>
                <mxCell id="wGU2MZA3LwLIrjLMQGGw-81" value="18" style="rounded=0;whiteSpace=wrap;html=1;fontSize=9;fontColor=#000000;strokeColor=#000000;strokeWidth=0;fillColor=#FF0000;gradientColor=none;fontStyle=1" parent="1" vertex="1">
                    <mxGeometry x="1557" y="330" width="20" height="20" as="geometry"/>
                </mxCell>
                <mxCell id="wGU2MZA3LwLIrjLMQGGw-82" value="19" style="rounded=0;whiteSpace=wrap;html=1;fontSize=9;fontColor=#000000;strokeColor=#000000;strokeWidth=0;fillColor=#FF0000;gradientColor=none;fontStyle=1" parent="1" vertex="1">
                    <mxGeometry x="1577" y="330" width="20" height="20" as="geometry"/>
                </mxCell>
                <mxCell id="wGU2MZA3LwLIrjLMQGGw-83" value="20" style="rounded=0;whiteSpace=wrap;html=1;fontSize=9;fontColor=#000000;strokeColor=#000000;strokeWidth=0;fillColor=#FF0000;gradientColor=none;fontStyle=1" parent="1" vertex="1">
                    <mxGeometry x="1497" y="350" width="20" height="20" as="geometry"/>
                </mxCell>
                <mxCell id="wGU2MZA3LwLIrjLMQGGw-84" value="21" style="rounded=0;whiteSpace=wrap;html=1;fontSize=9;fontColor=#000000;strokeColor=#000000;strokeWidth=0;fillColor=#FF0000;gradientColor=none;fontStyle=1" parent="1" vertex="1">
                    <mxGeometry x="1517" y="350" width="20" height="20" as="geometry"/>
                </mxCell>
                <mxCell id="wGU2MZA3LwLIrjLMQGGw-85" value="22" style="rounded=0;whiteSpace=wrap;html=1;fontSize=9;fontColor=#000000;strokeColor=#000000;strokeWidth=0;fillColor=#FF0000;gradientColor=none;fontStyle=1" parent="1" vertex="1">
                    <mxGeometry x="1537" y="350" width="20" height="20" as="geometry"/>
                </mxCell>
                <mxCell id="wGU2MZA3LwLIrjLMQGGw-86" value="23" style="rounded=0;whiteSpace=wrap;html=1;fontSize=9;fontColor=#000000;strokeColor=#000000;strokeWidth=0;fillColor=#FF0000;gradientColor=none;fontStyle=1" parent="1" vertex="1">
                    <mxGeometry x="1557" y="350" width="20" height="20" as="geometry"/>
                </mxCell>
                <mxCell id="wGU2MZA3LwLIrjLMQGGw-87" value="24" style="rounded=0;whiteSpace=wrap;html=1;fontSize=9;fontColor=#000000;strokeColor=#000000;strokeWidth=0;fillColor=#FF0000;gradientColor=none;fontStyle=1" parent="1" vertex="1">
                    <mxGeometry x="1577" y="350" width="20" height="20" as="geometry"/>
                </mxCell>
                <mxCell id="wGU2MZA3LwLIrjLMQGGw-88" value="0" style="rounded=0;whiteSpace=wrap;html=1;fontSize=9;fontColor=#000000;strokeColor=#000000;strokeWidth=0;fillColor=#00FF00;gradientColor=none;fontStyle=1" parent="1" vertex="1">
                    <mxGeometry x="1627" y="270" width="20" height="20" as="geometry"/>
                </mxCell>
                <mxCell id="wGU2MZA3LwLIrjLMQGGw-89" value="1" style="rounded=0;whiteSpace=wrap;html=1;fontSize=9;fontColor=#000000;strokeColor=#000000;strokeWidth=0;fillColor=#00FF00;gradientColor=none;fontStyle=1" parent="1" vertex="1">
                    <mxGeometry x="1647" y="270" width="20" height="20" as="geometry"/>
                </mxCell>
                <mxCell id="wGU2MZA3LwLIrjLMQGGw-90" value="2" style="rounded=0;whiteSpace=wrap;html=1;fontSize=9;fontColor=#000000;strokeColor=#000000;strokeWidth=0;fillColor=#00FF00;gradientColor=none;fontStyle=1" parent="1" vertex="1">
                    <mxGeometry x="1667" y="270" width="20" height="20" as="geometry"/>
                </mxCell>
                <mxCell id="wGU2MZA3LwLIrjLMQGGw-91" value="3" style="rounded=0;whiteSpace=wrap;html=1;fontSize=9;fontColor=#000000;strokeColor=#000000;strokeWidth=0;fillColor=#00FF00;gradientColor=none;fontStyle=1" parent="1" vertex="1">
                    <mxGeometry x="1687" y="270" width="20" height="20" as="geometry"/>
                </mxCell>
                <mxCell id="wGU2MZA3LwLIrjLMQGGw-92" value="4" style="rounded=0;whiteSpace=wrap;html=1;fontSize=9;fontColor=#000000;strokeColor=#000000;strokeWidth=0;fillColor=#00FF00;gradientColor=none;fontStyle=1" parent="1" vertex="1">
                    <mxGeometry x="1707" y="270" width="20" height="20" as="geometry"/>
                </mxCell>
                <mxCell id="wGU2MZA3LwLIrjLMQGGw-93" value="5" style="rounded=0;whiteSpace=wrap;html=1;fontSize=9;fontColor=#000000;strokeColor=#000000;strokeWidth=0;fillColor=#00FF00;gradientColor=none;fontStyle=1" parent="1" vertex="1">
                    <mxGeometry x="1627" y="290" width="20" height="20" as="geometry"/>
                </mxCell>
                <mxCell id="wGU2MZA3LwLIrjLMQGGw-94" value="6" style="rounded=0;whiteSpace=wrap;html=1;fontSize=9;fontColor=#000000;strokeColor=#000000;strokeWidth=0;fillColor=#00FF00;gradientColor=none;fontStyle=1" parent="1" vertex="1">
                    <mxGeometry x="1647" y="290" width="20" height="20" as="geometry"/>
                </mxCell>
                <mxCell id="wGU2MZA3LwLIrjLMQGGw-95" value="7" style="rounded=0;whiteSpace=wrap;html=1;fontSize=9;fontColor=#000000;strokeColor=#000000;strokeWidth=0;fillColor=#00FF00;gradientColor=none;fontStyle=1" parent="1" vertex="1">
                    <mxGeometry x="1667" y="290" width="20" height="20" as="geometry"/>
                </mxCell>
                <mxCell id="wGU2MZA3LwLIrjLMQGGw-96" value="8" style="rounded=0;whiteSpace=wrap;html=1;fontSize=9;fontColor=#000000;strokeColor=#000000;strokeWidth=0;fillColor=#00FF00;gradientColor=none;fontStyle=1" parent="1" vertex="1">
                    <mxGeometry x="1687" y="290" width="20" height="20" as="geometry"/>
                </mxCell>
                <mxCell id="wGU2MZA3LwLIrjLMQGGw-97" value="9" style="rounded=0;whiteSpace=wrap;html=1;fontSize=9;fontColor=#000000;strokeColor=#000000;strokeWidth=0;fillColor=#00FF00;gradientColor=none;fontStyle=1" parent="1" vertex="1">
                    <mxGeometry x="1707" y="290" width="20" height="20" as="geometry"/>
                </mxCell>
                <mxCell id="wGU2MZA3LwLIrjLMQGGw-98" value="10" style="rounded=0;whiteSpace=wrap;html=1;fontSize=9;fontColor=#000000;strokeColor=#000000;strokeWidth=0;fillColor=#00FF00;gradientColor=none;fontStyle=1" parent="1" vertex="1">
                    <mxGeometry x="1627" y="310" width="20" height="20" as="geometry"/>
                </mxCell>
                <mxCell id="wGU2MZA3LwLIrjLMQGGw-99" value="11" style="rounded=0;whiteSpace=wrap;html=1;fontSize=9;fontColor=#000000;strokeColor=#000000;strokeWidth=0;fillColor=#00FF00;gradientColor=none;fontStyle=1" parent="1" vertex="1">
                    <mxGeometry x="1647" y="310" width="20" height="20" as="geometry"/>
                </mxCell>
                <mxCell id="wGU2MZA3LwLIrjLMQGGw-100" value="12" style="rounded=0;whiteSpace=wrap;html=1;fontSize=9;fontColor=#000000;strokeColor=#000000;strokeWidth=0;fillColor=#00FF00;gradientColor=none;fontStyle=1" parent="1" vertex="1">
                    <mxGeometry x="1667" y="310" width="20" height="20" as="geometry"/>
                </mxCell>
                <mxCell id="wGU2MZA3LwLIrjLMQGGw-101" value="13" style="rounded=0;whiteSpace=wrap;html=1;fontSize=9;fontColor=#000000;strokeColor=#000000;strokeWidth=0;fillColor=#00FF00;gradientColor=none;fontStyle=1" parent="1" vertex="1">
                    <mxGeometry x="1687" y="310" width="20" height="20" as="geometry"/>
                </mxCell>
                <mxCell id="wGU2MZA3LwLIrjLMQGGw-102" value="14" style="rounded=0;whiteSpace=wrap;html=1;fontSize=9;fontColor=#000000;strokeColor=#000000;strokeWidth=0;fillColor=#00FF00;gradientColor=none;fontStyle=1" parent="1" vertex="1">
                    <mxGeometry x="1707" y="310" width="20" height="20" as="geometry"/>
                </mxCell>
                <mxCell id="wGU2MZA3LwLIrjLMQGGw-103" value="15" style="rounded=0;whiteSpace=wrap;html=1;fontSize=9;fontColor=#000000;strokeColor=#000000;strokeWidth=0;fillColor=#00FF00;gradientColor=none;fontStyle=1" parent="1" vertex="1">
                    <mxGeometry x="1627" y="330" width="20" height="20" as="geometry"/>
                </mxCell>
                <mxCell id="wGU2MZA3LwLIrjLMQGGw-104" value="16" style="rounded=0;whiteSpace=wrap;html=1;fontSize=9;fontColor=#000000;strokeColor=#000000;strokeWidth=0;fillColor=#00FF00;gradientColor=none;fontStyle=1" parent="1" vertex="1">
                    <mxGeometry x="1647" y="330" width="20" height="20" as="geometry"/>
                </mxCell>
                <mxCell id="wGU2MZA3LwLIrjLMQGGw-105" value="17" style="rounded=0;whiteSpace=wrap;html=1;fontSize=9;fontColor=#000000;strokeColor=#000000;strokeWidth=0;fillColor=#00FF00;gradientColor=none;fontStyle=1" parent="1" vertex="1">
                    <mxGeometry x="1667" y="330" width="20" height="20" as="geometry"/>
                </mxCell>
                <mxCell id="wGU2MZA3LwLIrjLMQGGw-106" value="18" style="rounded=0;whiteSpace=wrap;html=1;fontSize=9;fontColor=#000000;strokeColor=#000000;strokeWidth=0;fillColor=#00FF00;gradientColor=none;fontStyle=1" parent="1" vertex="1">
                    <mxGeometry x="1687" y="330" width="20" height="20" as="geometry"/>
                </mxCell>
                <mxCell id="wGU2MZA3LwLIrjLMQGGw-107" value="19" style="rounded=0;whiteSpace=wrap;html=1;fontSize=9;fontColor=#000000;strokeColor=#000000;strokeWidth=0;fillColor=#00FF00;gradientColor=none;fontStyle=1" parent="1" vertex="1">
                    <mxGeometry x="1707" y="330" width="20" height="20" as="geometry"/>
                </mxCell>
                <mxCell id="wGU2MZA3LwLIrjLMQGGw-108" value="20" style="rounded=0;whiteSpace=wrap;html=1;fontSize=9;fontColor=#000000;strokeColor=#000000;strokeWidth=0;fillColor=#00FF00;gradientColor=none;fontStyle=1" parent="1" vertex="1">
                    <mxGeometry x="1627" y="350" width="20" height="20" as="geometry"/>
                </mxCell>
                <mxCell id="wGU2MZA3LwLIrjLMQGGw-109" value="21" style="rounded=0;whiteSpace=wrap;html=1;fontSize=9;fontColor=#000000;strokeColor=#000000;strokeWidth=0;fillColor=#00FF00;gradientColor=none;fontStyle=1" parent="1" vertex="1">
                    <mxGeometry x="1647" y="350" width="20" height="20" as="geometry"/>
                </mxCell>
                <mxCell id="wGU2MZA3LwLIrjLMQGGw-110" value="22" style="rounded=0;whiteSpace=wrap;html=1;fontSize=9;fontColor=#000000;strokeColor=#000000;strokeWidth=0;fillColor=#00FF00;gradientColor=none;fontStyle=1" parent="1" vertex="1">
                    <mxGeometry x="1667" y="350" width="20" height="20" as="geometry"/>
                </mxCell>
                <mxCell id="wGU2MZA3LwLIrjLMQGGw-111" value="23" style="rounded=0;whiteSpace=wrap;html=1;fontSize=9;fontColor=#000000;strokeColor=#000000;strokeWidth=0;fillColor=#00FF00;gradientColor=none;fontStyle=1" parent="1" vertex="1">
                    <mxGeometry x="1687" y="350" width="20" height="20" as="geometry"/>
                </mxCell>
                <mxCell id="wGU2MZA3LwLIrjLMQGGw-112" value="24" style="rounded=0;whiteSpace=wrap;html=1;fontSize=9;fontColor=#000000;strokeColor=#000000;strokeWidth=0;fillColor=#00FF00;gradientColor=none;fontStyle=1" parent="1" vertex="1">
                    <mxGeometry x="1707" y="350" width="20" height="20" as="geometry"/>
                </mxCell>
                <mxCell id="wGU2MZA3LwLIrjLMQGGw-113" value="0" style="rounded=0;whiteSpace=wrap;html=1;fontSize=9;fontColor=#000000;strokeColor=#000000;strokeWidth=0;fillColor=#0000FF;gradientColor=none;fontStyle=1" parent="1" vertex="1">
                    <mxGeometry x="1757" y="270" width="20" height="20" as="geometry"/>
                </mxCell>
                <mxCell id="wGU2MZA3LwLIrjLMQGGw-114" value="1" style="rounded=0;whiteSpace=wrap;html=1;fontSize=9;fontColor=#000000;strokeColor=#000000;strokeWidth=0;fillColor=#0000FF;gradientColor=none;fontStyle=1" parent="1" vertex="1">
                    <mxGeometry x="1777" y="270" width="20" height="20" as="geometry"/>
                </mxCell>
                <mxCell id="wGU2MZA3LwLIrjLMQGGw-115" value="2" style="rounded=0;whiteSpace=wrap;html=1;fontSize=9;fontColor=#000000;strokeColor=#000000;strokeWidth=0;fillColor=#0000FF;gradientColor=none;fontStyle=1" parent="1" vertex="1">
                    <mxGeometry x="1797" y="270" width="20" height="20" as="geometry"/>
                </mxCell>
                <mxCell id="wGU2MZA3LwLIrjLMQGGw-116" value="3" style="rounded=0;whiteSpace=wrap;html=1;fontSize=9;fontColor=#000000;strokeColor=#000000;strokeWidth=0;fillColor=#0000FF;gradientColor=none;fontStyle=1" parent="1" vertex="1">
                    <mxGeometry x="1817" y="270" width="20" height="20" as="geometry"/>
                </mxCell>
                <mxCell id="wGU2MZA3LwLIrjLMQGGw-117" value="4" style="rounded=0;whiteSpace=wrap;html=1;fontSize=9;fontColor=#000000;strokeColor=#000000;strokeWidth=0;fillColor=#0000FF;gradientColor=none;fontStyle=1" parent="1" vertex="1">
                    <mxGeometry x="1837" y="270" width="20" height="20" as="geometry"/>
                </mxCell>
                <mxCell id="wGU2MZA3LwLIrjLMQGGw-118" value="5" style="rounded=0;whiteSpace=wrap;html=1;fontSize=9;fontColor=#000000;strokeColor=#000000;strokeWidth=0;fillColor=#0000FF;gradientColor=none;fontStyle=1" parent="1" vertex="1">
                    <mxGeometry x="1757" y="290" width="20" height="20" as="geometry"/>
                </mxCell>
                <mxCell id="wGU2MZA3LwLIrjLMQGGw-119" value="6" style="rounded=0;whiteSpace=wrap;html=1;fontSize=9;fontColor=#000000;strokeColor=#000000;strokeWidth=0;fillColor=#0000FF;gradientColor=none;fontStyle=1" parent="1" vertex="1">
                    <mxGeometry x="1777" y="290" width="20" height="20" as="geometry"/>
                </mxCell>
                <mxCell id="wGU2MZA3LwLIrjLMQGGw-120" value="7" style="rounded=0;whiteSpace=wrap;html=1;fontSize=9;fontColor=#000000;strokeColor=#000000;strokeWidth=0;fillColor=#0000FF;gradientColor=none;fontStyle=1" parent="1" vertex="1">
                    <mxGeometry x="1797" y="290" width="20" height="20" as="geometry"/>
                </mxCell>
                <mxCell id="wGU2MZA3LwLIrjLMQGGw-121" value="8" style="rounded=0;whiteSpace=wrap;html=1;fontSize=9;fontColor=#000000;strokeColor=#000000;strokeWidth=0;fillColor=#0000FF;gradientColor=none;fontStyle=1" parent="1" vertex="1">
                    <mxGeometry x="1817" y="290" width="20" height="20" as="geometry"/>
                </mxCell>
                <mxCell id="wGU2MZA3LwLIrjLMQGGw-122" value="9" style="rounded=0;whiteSpace=wrap;html=1;fontSize=9;fontColor=#000000;strokeColor=#000000;strokeWidth=0;fillColor=#0000FF;gradientColor=none;fontStyle=1" parent="1" vertex="1">
                    <mxGeometry x="1837" y="290" width="20" height="20" as="geometry"/>
                </mxCell>
                <mxCell id="wGU2MZA3LwLIrjLMQGGw-123" value="10" style="rounded=0;whiteSpace=wrap;html=1;fontSize=9;fontColor=#000000;strokeColor=#000000;strokeWidth=0;fillColor=#0000FF;gradientColor=none;fontStyle=1" parent="1" vertex="1">
                    <mxGeometry x="1757" y="310" width="20" height="20" as="geometry"/>
                </mxCell>
                <mxCell id="wGU2MZA3LwLIrjLMQGGw-124" value="11" style="rounded=0;whiteSpace=wrap;html=1;fontSize=9;fontColor=#000000;strokeColor=#000000;strokeWidth=0;fillColor=#0000FF;gradientColor=none;fontStyle=1" parent="1" vertex="1">
                    <mxGeometry x="1777" y="310" width="20" height="20" as="geometry"/>
                </mxCell>
                <mxCell id="wGU2MZA3LwLIrjLMQGGw-125" value="12" style="rounded=0;whiteSpace=wrap;html=1;fontSize=9;fontColor=#000000;strokeColor=#000000;strokeWidth=0;fillColor=#0000FF;gradientColor=none;fontStyle=1" parent="1" vertex="1">
                    <mxGeometry x="1797" y="310" width="20" height="20" as="geometry"/>
                </mxCell>
                <mxCell id="wGU2MZA3LwLIrjLMQGGw-126" value="13" style="rounded=0;whiteSpace=wrap;html=1;fontSize=9;fontColor=#000000;strokeColor=#000000;strokeWidth=0;fillColor=#0000FF;gradientColor=none;fontStyle=1" parent="1" vertex="1">
                    <mxGeometry x="1817" y="310" width="20" height="20" as="geometry"/>
                </mxCell>
                <mxCell id="wGU2MZA3LwLIrjLMQGGw-127" value="14" style="rounded=0;whiteSpace=wrap;html=1;fontSize=9;fontColor=#000000;strokeColor=#000000;strokeWidth=0;fillColor=#0000FF;gradientColor=none;fontStyle=1" parent="1" vertex="1">
                    <mxGeometry x="1837" y="310" width="20" height="20" as="geometry"/>
                </mxCell>
                <mxCell id="wGU2MZA3LwLIrjLMQGGw-128" value="15" style="rounded=0;whiteSpace=wrap;html=1;fontSize=9;fontColor=#000000;strokeColor=#000000;strokeWidth=0;fillColor=#0000FF;gradientColor=none;fontStyle=1" parent="1" vertex="1">
                    <mxGeometry x="1757" y="330" width="20" height="20" as="geometry"/>
                </mxCell>
                <mxCell id="wGU2MZA3LwLIrjLMQGGw-129" value="16" style="rounded=0;whiteSpace=wrap;html=1;fontSize=9;fontColor=#000000;strokeColor=#000000;strokeWidth=0;fillColor=#0000FF;gradientColor=none;fontStyle=1" parent="1" vertex="1">
                    <mxGeometry x="1777" y="330" width="20" height="20" as="geometry"/>
                </mxCell>
                <mxCell id="wGU2MZA3LwLIrjLMQGGw-130" value="17" style="rounded=0;whiteSpace=wrap;html=1;fontSize=9;fontColor=#000000;strokeColor=#000000;strokeWidth=0;fillColor=#0000FF;gradientColor=none;fontStyle=1" parent="1" vertex="1">
                    <mxGeometry x="1797" y="330" width="20" height="20" as="geometry"/>
                </mxCell>
                <mxCell id="wGU2MZA3LwLIrjLMQGGw-131" value="18" style="rounded=0;whiteSpace=wrap;html=1;fontSize=9;fontColor=#000000;strokeColor=#000000;strokeWidth=0;fillColor=#0000FF;gradientColor=none;fontStyle=1" parent="1" vertex="1">
                    <mxGeometry x="1817" y="330" width="20" height="20" as="geometry"/>
                </mxCell>
                <mxCell id="wGU2MZA3LwLIrjLMQGGw-132" value="19" style="rounded=0;whiteSpace=wrap;html=1;fontSize=9;fontColor=#000000;strokeColor=#000000;strokeWidth=0;fillColor=#0000FF;gradientColor=none;fontStyle=1" parent="1" vertex="1">
                    <mxGeometry x="1837" y="330" width="20" height="20" as="geometry"/>
                </mxCell>
                <mxCell id="wGU2MZA3LwLIrjLMQGGw-133" value="20" style="rounded=0;whiteSpace=wrap;html=1;fontSize=9;fontColor=#000000;strokeColor=#000000;strokeWidth=0;fillColor=#0000FF;gradientColor=none;fontStyle=1" parent="1" vertex="1">
                    <mxGeometry x="1757" y="350" width="20" height="20" as="geometry"/>
                </mxCell>
                <mxCell id="wGU2MZA3LwLIrjLMQGGw-134" value="21" style="rounded=0;whiteSpace=wrap;html=1;fontSize=9;fontColor=#000000;strokeColor=#000000;strokeWidth=0;fillColor=#0000FF;gradientColor=none;fontStyle=1" parent="1" vertex="1">
                    <mxGeometry x="1777" y="350" width="20" height="20" as="geometry"/>
                </mxCell>
                <mxCell id="wGU2MZA3LwLIrjLMQGGw-135" value="22" style="rounded=0;whiteSpace=wrap;html=1;fontSize=9;fontColor=#000000;strokeColor=#000000;strokeWidth=0;fillColor=#0000FF;gradientColor=none;fontStyle=1" parent="1" vertex="1">
                    <mxGeometry x="1797" y="350" width="20" height="20" as="geometry"/>
                </mxCell>
                <mxCell id="wGU2MZA3LwLIrjLMQGGw-136" value="23" style="rounded=0;whiteSpace=wrap;html=1;fontSize=9;fontColor=#000000;strokeColor=#000000;strokeWidth=0;fillColor=#0000FF;gradientColor=none;fontStyle=1" parent="1" vertex="1">
                    <mxGeometry x="1817" y="350" width="20" height="20" as="geometry"/>
                </mxCell>
                <mxCell id="wGU2MZA3LwLIrjLMQGGw-137" value="24" style="rounded=0;whiteSpace=wrap;html=1;fontSize=9;fontColor=#000000;strokeColor=#000000;strokeWidth=0;fillColor=#0000FF;gradientColor=none;fontStyle=1" parent="1" vertex="1">
                    <mxGeometry x="1837" y="350" width="20" height="20" as="geometry"/>
                </mxCell>
                <mxCell id="wGU2MZA3LwLIrjLMQGGw-138" value="" style="whiteSpace=wrap;html=1;aspect=fixed;rounded=0;fontSize=9;fontColor=#000000;strokeColor=#000000;strokeWidth=3;fillColor=none;gradientColor=none;" parent="1" vertex="1">
                    <mxGeometry x="1497" y="270" width="40" height="40" as="geometry"/>
                </mxCell>
                <mxCell id="wGU2MZA3LwLIrjLMQGGw-139" value="" style="whiteSpace=wrap;html=1;aspect=fixed;rounded=0;fontSize=9;fontColor=#000000;strokeColor=#000000;strokeWidth=3;fillColor=none;gradientColor=none;" parent="1" vertex="1">
                    <mxGeometry x="1627" y="270" width="40" height="40" as="geometry"/>
                </mxCell>
                <mxCell id="wGU2MZA3LwLIrjLMQGGw-140" value="" style="whiteSpace=wrap;html=1;aspect=fixed;rounded=0;fontSize=9;fontColor=#000000;strokeColor=#000000;strokeWidth=3;fillColor=none;gradientColor=none;" parent="1" vertex="1">
                    <mxGeometry x="1757" y="270" width="40" height="40" as="geometry"/>
                </mxCell>
                <mxCell id="wGU2MZA3LwLIrjLMQGGw-141" value="" style="curved=1;endArrow=classic;html=1;rounded=1;fontSize=9;fontColor=#000000;strokeColor=default;strokeWidth=1;jumpStyle=arc;exitX=1.014;exitY=0.384;exitDx=0;exitDy=0;entryX=0.25;entryY=0;entryDx=0;entryDy=0;endFill=1;exitPerimeter=0;" parent="1" source="wGU2MZA3LwLIrjLMQGGw-138" target="wGU2MZA3LwLIrjLMQGGw-87" edge="1">
                    <mxGeometry width="50" height="50" relative="1" as="geometry">
                        <mxPoint x="1502" y="460" as="sourcePoint"/>
                        <mxPoint x="1562" y="490" as="targetPoint"/>
                        <Array as="points">
                            <mxPoint x="1572" y="285"/>
                            <mxPoint x="1587" y="310"/>
                            <mxPoint x="1517" y="320"/>
                            <mxPoint x="1512" y="340"/>
                            <mxPoint x="1532" y="350"/>
                        </Array>
                    </mxGeometry>
                </mxCell>
                <mxCell id="wGU2MZA3LwLIrjLMQGGw-142" value="" style="curved=1;endArrow=classic;html=1;rounded=1;fontSize=9;fontColor=#000000;strokeColor=default;strokeWidth=1;jumpStyle=arc;exitX=1.014;exitY=0.384;exitDx=0;exitDy=0;entryX=0.25;entryY=0;entryDx=0;entryDy=0;endFill=1;exitPerimeter=0;" parent="1" edge="1">
                    <mxGeometry width="50" height="50" relative="1" as="geometry">
                        <mxPoint x="1667.06" y="287.8600000000001" as="sourcePoint"/>
                        <mxPoint x="1711.5" y="352.5" as="targetPoint"/>
                        <Array as="points">
                            <mxPoint x="1701.5" y="287.5"/>
                            <mxPoint x="1716.5" y="312.5"/>
                            <mxPoint x="1646.5" y="322.5"/>
                            <mxPoint x="1641.5" y="342.5"/>
                            <mxPoint x="1661.5" y="352.5"/>
                        </Array>
                    </mxGeometry>
                </mxCell>
                <mxCell id="wGU2MZA3LwLIrjLMQGGw-143" value="" style="curved=1;endArrow=classic;html=1;rounded=1;fontSize=9;fontColor=#000000;strokeColor=default;strokeWidth=1;jumpStyle=arc;exitX=1.014;exitY=0.384;exitDx=0;exitDy=0;entryX=0.25;entryY=0;entryDx=0;entryDy=0;endFill=1;exitPerimeter=0;" parent="1" edge="1">
                    <mxGeometry width="50" height="50" relative="1" as="geometry">
                        <mxPoint x="1795.06" y="285.3600000000001" as="sourcePoint"/>
                        <mxPoint x="1839.5" y="350" as="targetPoint"/>
                        <Array as="points">
                            <mxPoint x="1829.5" y="285"/>
                            <mxPoint x="1844.5" y="310"/>
                            <mxPoint x="1774.5" y="320"/>
                            <mxPoint x="1769.5" y="340"/>
                            <mxPoint x="1789.5" y="350"/>
                        </Array>
                    </mxGeometry>
                </mxCell>
                <mxCell id="wGU2MZA3LwLIrjLMQGGw-144" value="0" style="rounded=0;whiteSpace=wrap;html=1;fontSize=9;fontColor=#000000;strokeColor=#000000;strokeWidth=0;fillColor=#FF0000;gradientColor=none;fontStyle=1" parent="1" vertex="1">
                    <mxGeometry x="1517" y="440" width="20" height="20" as="geometry"/>
                </mxCell>
                <mxCell id="wGU2MZA3LwLIrjLMQGGw-145" value="1" style="rounded=0;whiteSpace=wrap;html=1;fontSize=9;fontColor=#000000;strokeColor=#000000;strokeWidth=0;fillColor=#FF0000;gradientColor=none;fontStyle=1" parent="1" vertex="1">
                    <mxGeometry x="1537" y="440" width="20" height="20" as="geometry"/>
                </mxCell>
                <mxCell id="wGU2MZA3LwLIrjLMQGGw-146" value="2" style="rounded=0;whiteSpace=wrap;html=1;fontSize=9;fontColor=#000000;strokeColor=#000000;strokeWidth=0;fillColor=#FF0000;gradientColor=none;fontStyle=1" parent="1" vertex="1">
                    <mxGeometry x="1517" y="460" width="20" height="20" as="geometry"/>
                </mxCell>
                <mxCell id="wGU2MZA3LwLIrjLMQGGw-147" value="3" style="rounded=0;whiteSpace=wrap;html=1;fontSize=9;fontColor=#000000;strokeColor=#000000;strokeWidth=0;fillColor=#FF0000;gradientColor=none;fontStyle=1" parent="1" vertex="1">
                    <mxGeometry x="1537" y="460" width="20" height="20" as="geometry"/>
                </mxCell>
                <mxCell id="wGU2MZA3LwLIrjLMQGGw-148" style="edgeStyle=none;rounded=0;orthogonalLoop=1;jettySize=auto;html=1;entryX=0.175;entryY=0;entryDx=0;entryDy=0;entryPerimeter=0;" parent="1" source="wGU2MZA3LwLIrjLMQGGw-152" target="wGU2MZA3LwLIrjLMQGGw-209" edge="1">
                    <mxGeometry relative="1" as="geometry"/>
                </mxCell>
                <mxCell id="wGU2MZA3LwLIrjLMQGGw-149" style="edgeStyle=none;rounded=0;orthogonalLoop=1;jettySize=auto;html=1;entryX=0.165;entryY=-0.01;entryDx=0;entryDy=0;entryPerimeter=0;exitX=1;exitY=1;exitDx=0;exitDy=0;" parent="1" source="2" target="wGU2MZA3LwLIrjLMQGGw-211" edge="1">
                    <mxGeometry relative="1" as="geometry"/>
                </mxCell>
                <mxCell id="wGU2MZA3LwLIrjLMQGGw-150" style="edgeStyle=none;rounded=0;orthogonalLoop=1;jettySize=auto;html=1;entryX=0.32;entryY=0.11;entryDx=0;entryDy=0;entryPerimeter=0;exitX=1;exitY=1;exitDx=0;exitDy=0;" parent="1" source="3" target="wGU2MZA3LwLIrjLMQGGw-213" edge="1">
                    <mxGeometry relative="1" as="geometry"/>
                </mxCell>
                <mxCell id="wGU2MZA3LwLIrjLMQGGw-151" style="edgeStyle=none;rounded=0;orthogonalLoop=1;jettySize=auto;html=1;entryX=0;entryY=0;entryDx=0;entryDy=0;exitX=1;exitY=1;exitDx=0;exitDy=0;" parent="1" source="4" target="wGU2MZA3LwLIrjLMQGGw-215" edge="1">
                    <mxGeometry relative="1" as="geometry"/>
                </mxCell>
                <mxCell id="wGU2MZA3LwLIrjLMQGGw-152" value="" style="whiteSpace=wrap;html=1;aspect=fixed;rounded=0;fontSize=9;fontColor=#000000;strokeColor=#000000;strokeWidth=3;fillColor=none;gradientColor=none;" parent="1" vertex="1">
                    <mxGeometry x="1517" y="440" width="40" height="40" as="geometry"/>
                </mxCell>
                <mxCell id="wGU2MZA3LwLIrjLMQGGw-153" value="0" style="rounded=0;whiteSpace=wrap;html=1;fontSize=9;fontColor=#000000;strokeColor=#000000;strokeWidth=0;fillColor=#00FF00;gradientColor=none;fontStyle=1" parent="1" vertex="1">
                    <mxGeometry x="1644" y="439" width="20" height="20" as="geometry"/>
                </mxCell>
                <mxCell id="wGU2MZA3LwLIrjLMQGGw-154" value="1" style="rounded=0;whiteSpace=wrap;html=1;fontSize=9;fontColor=#000000;strokeColor=#000000;strokeWidth=0;fillColor=#00FF00;gradientColor=none;fontStyle=1" parent="1" vertex="1">
                    <mxGeometry x="1664" y="439" width="20" height="20" as="geometry"/>
                </mxCell>
                <mxCell id="wGU2MZA3LwLIrjLMQGGw-155" value="2" style="rounded=0;whiteSpace=wrap;html=1;fontSize=9;fontColor=#000000;strokeColor=#000000;strokeWidth=0;fillColor=#00FF00;gradientColor=none;fontStyle=1" parent="1" vertex="1">
                    <mxGeometry x="1644" y="459" width="20" height="20" as="geometry"/>
                </mxCell>
                <mxCell id="wGU2MZA3LwLIrjLMQGGw-156" value="3" style="rounded=0;whiteSpace=wrap;html=1;fontSize=9;fontColor=#000000;strokeColor=#000000;strokeWidth=0;fillColor=#00FF00;gradientColor=none;fontStyle=1" parent="1" vertex="1">
                    <mxGeometry x="1664" y="459" width="20" height="20" as="geometry"/>
                </mxCell>
                <mxCell id="wGU2MZA3LwLIrjLMQGGw-157" style="edgeStyle=none;rounded=0;orthogonalLoop=1;jettySize=auto;html=1;entryX=0.5;entryY=0;entryDx=0;entryDy=0;" parent="1" source="wGU2MZA3LwLIrjLMQGGw-161" target="wGU2MZA3LwLIrjLMQGGw-209" edge="1">
                    <mxGeometry relative="1" as="geometry"/>
                </mxCell>
                <mxCell id="wGU2MZA3LwLIrjLMQGGw-158" style="edgeStyle=none;rounded=0;orthogonalLoop=1;jettySize=auto;html=1;entryX=0.5;entryY=0;entryDx=0;entryDy=0;" parent="1" source="wGU2MZA3LwLIrjLMQGGw-161" target="wGU2MZA3LwLIrjLMQGGw-211" edge="1">
                    <mxGeometry relative="1" as="geometry"/>
                </mxCell>
                <mxCell id="wGU2MZA3LwLIrjLMQGGw-159" style="edgeStyle=none;rounded=0;orthogonalLoop=1;jettySize=auto;html=1;entryX=0.5;entryY=0;entryDx=0;entryDy=0;" parent="1" source="wGU2MZA3LwLIrjLMQGGw-161" target="wGU2MZA3LwLIrjLMQGGw-213" edge="1">
                    <mxGeometry relative="1" as="geometry"/>
                </mxCell>
                <mxCell id="wGU2MZA3LwLIrjLMQGGw-160" style="edgeStyle=none;rounded=0;orthogonalLoop=1;jettySize=auto;html=1;entryX=0.5;entryY=0;entryDx=0;entryDy=0;" parent="1" source="wGU2MZA3LwLIrjLMQGGw-161" target="wGU2MZA3LwLIrjLMQGGw-215" edge="1">
                    <mxGeometry relative="1" as="geometry"/>
                </mxCell>
                <mxCell id="wGU2MZA3LwLIrjLMQGGw-161" value="" style="whiteSpace=wrap;html=1;aspect=fixed;rounded=0;fontSize=9;fontColor=#000000;strokeColor=#000000;strokeWidth=3;fillColor=none;gradientColor=none;" parent="1" vertex="1">
                    <mxGeometry x="1644" y="439" width="40" height="40" as="geometry"/>
                </mxCell>
                <mxCell id="wGU2MZA3LwLIrjLMQGGw-162" value="0" style="rounded=0;whiteSpace=wrap;html=1;fontSize=9;fontColor=#000000;strokeColor=#000000;strokeWidth=0;fillColor=#0000FF;gradientColor=none;fontStyle=1" parent="1" vertex="1">
                    <mxGeometry x="1767" y="440" width="20" height="20" as="geometry"/>
                </mxCell>
                <mxCell id="wGU2MZA3LwLIrjLMQGGw-163" value="1" style="rounded=0;whiteSpace=wrap;html=1;fontSize=9;fontColor=#000000;strokeColor=#000000;strokeWidth=0;fillColor=#0000FF;gradientColor=none;fontStyle=1" parent="1" vertex="1">
                    <mxGeometry x="1787" y="440" width="20" height="20" as="geometry"/>
                </mxCell>
                <mxCell id="wGU2MZA3LwLIrjLMQGGw-164" value="2" style="rounded=0;whiteSpace=wrap;html=1;fontSize=9;fontColor=#000000;strokeColor=#000000;strokeWidth=0;fillColor=#0000FF;gradientColor=none;fontStyle=1" parent="1" vertex="1">
                    <mxGeometry x="1767" y="460" width="20" height="20" as="geometry"/>
                </mxCell>
                <mxCell id="wGU2MZA3LwLIrjLMQGGw-165" value="3" style="rounded=0;whiteSpace=wrap;html=1;fontSize=9;fontColor=#000000;strokeColor=#000000;strokeWidth=0;fillColor=#0000FF;gradientColor=none;fontStyle=1" parent="1" vertex="1">
                    <mxGeometry x="1787" y="460" width="20" height="20" as="geometry"/>
                </mxCell>
                <mxCell id="wGU2MZA3LwLIrjLMQGGw-166" style="edgeStyle=none;rounded=0;orthogonalLoop=1;jettySize=auto;html=1;entryX=1;entryY=0;entryDx=0;entryDy=0;" parent="1" source="wGU2MZA3LwLIrjLMQGGw-170" target="wGU2MZA3LwLIrjLMQGGw-209" edge="1">
                    <mxGeometry relative="1" as="geometry"/>
                </mxCell>
                <mxCell id="wGU2MZA3LwLIrjLMQGGw-167" style="edgeStyle=none;rounded=0;orthogonalLoop=1;jettySize=auto;html=1;" parent="1" source="wGU2MZA3LwLIrjLMQGGw-170" target="wGU2MZA3LwLIrjLMQGGw-211" edge="1">
                    <mxGeometry relative="1" as="geometry"/>
                </mxCell>
                <mxCell id="wGU2MZA3LwLIrjLMQGGw-168" style="edgeStyle=none;rounded=0;orthogonalLoop=1;jettySize=auto;html=1;entryX=1;entryY=0;entryDx=0;entryDy=0;" parent="1" source="wGU2MZA3LwLIrjLMQGGw-170" target="wGU2MZA3LwLIrjLMQGGw-213" edge="1">
                    <mxGeometry relative="1" as="geometry"/>
                </mxCell>
                <mxCell id="wGU2MZA3LwLIrjLMQGGw-169" style="edgeStyle=none;rounded=0;orthogonalLoop=1;jettySize=auto;html=1;entryX=1;entryY=0;entryDx=0;entryDy=0;" parent="1" source="wGU2MZA3LwLIrjLMQGGw-170" target="wGU2MZA3LwLIrjLMQGGw-215" edge="1">
                    <mxGeometry relative="1" as="geometry"/>
                </mxCell>
                <mxCell id="wGU2MZA3LwLIrjLMQGGw-170" value="" style="whiteSpace=wrap;html=1;aspect=fixed;rounded=0;fontSize=9;fontColor=#000000;strokeColor=#000000;strokeWidth=3;fillColor=none;gradientColor=none;" parent="1" vertex="1">
                    <mxGeometry x="1767" y="440" width="40" height="40" as="geometry"/>
                </mxCell>
                <mxCell id="wGU2MZA3LwLIrjLMQGGw-171" value="" style="shape=cube;whiteSpace=wrap;html=1;boundedLbl=1;backgroundOutline=1;darkOpacity=0.05;darkOpacity2=0.1;size=10;rotation=90;strokeWidth=2;fillColor=#d5e8d4;strokeColor=#33001A;" parent="1" vertex="1">
                    <mxGeometry x="1809.5" y="670" width="30" height="25" as="geometry"/>
                </mxCell>
                <mxCell id="wGU2MZA3LwLIrjLMQGGw-172" value="" style="shape=cube;whiteSpace=wrap;html=1;boundedLbl=1;backgroundOutline=1;darkOpacity=0.05;darkOpacity2=0.1;size=10;rotation=90;strokeWidth=2;fillColor=#d5e8d4;strokeColor=#33001A;" parent="1" vertex="1">
                    <mxGeometry x="1809.5" y="650" width="30" height="25" as="geometry"/>
                </mxCell>
                <mxCell id="wGU2MZA3LwLIrjLMQGGw-173" value="" style="shape=cube;whiteSpace=wrap;html=1;boundedLbl=1;backgroundOutline=1;darkOpacity=0.05;darkOpacity2=0.1;size=10;rotation=90;strokeWidth=2;fillColor=#d5e8d4;strokeColor=#33001A;" parent="1" vertex="1">
                    <mxGeometry x="1809.5" y="630" width="30" height="25" as="geometry"/>
                </mxCell>
                <mxCell id="wGU2MZA3LwLIrjLMQGGw-174" value="" style="shape=cube;whiteSpace=wrap;html=1;boundedLbl=1;backgroundOutline=1;darkOpacity=0.05;darkOpacity2=0.1;size=10;rotation=90;strokeWidth=2;fillColor=#d5e8d4;strokeColor=#33001A;" parent="1" vertex="1">
                    <mxGeometry x="1764.5" y="610" width="30" height="25" as="geometry"/>
                </mxCell>
                <mxCell id="wGU2MZA3LwLIrjLMQGGw-175" value="" style="shape=cube;whiteSpace=wrap;html=1;boundedLbl=1;backgroundOutline=1;darkOpacity=0.05;darkOpacity2=0.1;size=10;rotation=90;fillColor=#d5e8d4;strokeWidth=2;strokeColor=#33001A;" parent="1" vertex="1">
                    <mxGeometry x="1779.5" y="610" width="30" height="25" as="geometry"/>
                </mxCell>
                <mxCell id="wGU2MZA3LwLIrjLMQGGw-176" value="" style="shape=cube;whiteSpace=wrap;html=1;boundedLbl=1;backgroundOutline=1;darkOpacity=0.05;darkOpacity2=0.1;size=10;rotation=90;fillColor=#d5e8d4;strokeWidth=2;strokeColor=#33001A;" parent="1" vertex="1">
                    <mxGeometry x="1794.5" y="610" width="30" height="25" as="geometry"/>
                </mxCell>
                <mxCell id="wGU2MZA3LwLIrjLMQGGw-177" value="" style="shape=cube;whiteSpace=wrap;html=1;boundedLbl=1;backgroundOutline=1;darkOpacity=0.05;darkOpacity2=0.1;size=10;rotation=90;strokeWidth=2;fillColor=#d5e8d4;strokeColor=#33001A;" parent="1" vertex="1">
                    <mxGeometry x="1809.5" y="610" width="30" height="25" as="geometry"/>
                </mxCell>
                <mxCell id="wGU2MZA3LwLIrjLMQGGw-178" value="" style="shape=cube;whiteSpace=wrap;html=1;boundedLbl=1;backgroundOutline=1;darkOpacity=0.05;darkOpacity2=0.1;size=10;rotation=90;strokeWidth=2;fillColor=#FF3399;" parent="1" vertex="1">
                    <mxGeometry x="1799.5" y="680" width="30" height="25" as="geometry"/>
                </mxCell>
                <mxCell id="wGU2MZA3LwLIrjLMQGGw-179" value="" style="shape=cube;whiteSpace=wrap;html=1;boundedLbl=1;backgroundOutline=1;darkOpacity=0.05;darkOpacity2=0.1;size=10;rotation=90;strokeWidth=2;fillColor=#FF3399;" parent="1" vertex="1">
                    <mxGeometry x="1799.5" y="660" width="30" height="25" as="geometry"/>
                </mxCell>
                <mxCell id="wGU2MZA3LwLIrjLMQGGw-180" value="" style="shape=cube;whiteSpace=wrap;html=1;boundedLbl=1;backgroundOutline=1;darkOpacity=0.05;darkOpacity2=0.1;size=10;rotation=90;strokeWidth=2;fillColor=#FF3399;" parent="1" vertex="1">
                    <mxGeometry x="1799.5" y="640" width="30" height="25" as="geometry"/>
                </mxCell>
                <mxCell id="wGU2MZA3LwLIrjLMQGGw-181" value="3" style="shape=cube;whiteSpace=wrap;html=1;boundedLbl=1;backgroundOutline=1;darkOpacity=0.05;darkOpacity2=0.1;size=10;rotation=90;horizontal=0;strokeWidth=2;fontSize=9;fillColor=#FFFF66;fontStyle=1" parent="1" vertex="1">
                    <mxGeometry x="1734.5" y="700" width="30" height="25" as="geometry"/>
                </mxCell>
                <mxCell id="wGU2MZA3LwLIrjLMQGGw-182" value="3" style="shape=cube;whiteSpace=wrap;html=1;boundedLbl=1;backgroundOutline=1;darkOpacity=0.05;darkOpacity2=0.1;size=10;rotation=90;horizontal=0;strokeWidth=2;fontSize=9;fillColor=#FFFF66;fontStyle=1" parent="1" vertex="1">
                    <mxGeometry x="1749.5" y="700" width="30" height="25" as="geometry"/>
                </mxCell>
                <mxCell id="wGU2MZA3LwLIrjLMQGGw-183" value="" style="shape=cube;whiteSpace=wrap;html=1;boundedLbl=1;backgroundOutline=1;darkOpacity=0.05;darkOpacity2=0.1;size=10;rotation=90;strokeWidth=2;fillColor=#FF3399;" parent="1" vertex="1">
                    <mxGeometry x="1754.5" y="620" width="30" height="25" as="geometry"/>
                </mxCell>
                <mxCell id="wGU2MZA3LwLIrjLMQGGw-184" value="" style="shape=cube;whiteSpace=wrap;html=1;boundedLbl=1;backgroundOutline=1;darkOpacity=0.05;darkOpacity2=0.1;size=10;rotation=90;fillColor=#FF3399;strokeWidth=2;" parent="1" vertex="1">
                    <mxGeometry x="1769.5" y="620" width="30" height="25" as="geometry"/>
                </mxCell>
                <mxCell id="wGU2MZA3LwLIrjLMQGGw-185" value="" style="shape=cube;whiteSpace=wrap;html=1;boundedLbl=1;backgroundOutline=1;darkOpacity=0.05;darkOpacity2=0.1;size=10;rotation=90;fillColor=#FF3399;strokeWidth=2;" parent="1" vertex="1">
                    <mxGeometry x="1784.5" y="620" width="30" height="25" as="geometry"/>
                </mxCell>
                <mxCell id="wGU2MZA3LwLIrjLMQGGw-186" value="" style="shape=cube;whiteSpace=wrap;html=1;boundedLbl=1;backgroundOutline=1;darkOpacity=0.05;darkOpacity2=0.1;size=10;rotation=90;strokeWidth=2;fillColor=#7EA6E0;fontStyle=1" parent="1" vertex="1">
                    <mxGeometry x="1744.5" y="630" width="30" height="25" as="geometry"/>
                </mxCell>
                <mxCell id="wGU2MZA3LwLIrjLMQGGw-187" value="" style="shape=cube;whiteSpace=wrap;html=1;boundedLbl=1;backgroundOutline=1;darkOpacity=0.05;darkOpacity2=0.1;size=10;rotation=90;strokeWidth=2;fillColor=#7EA6E0;fontStyle=1" parent="1" vertex="1">
                    <mxGeometry x="1759.5" y="630" width="30" height="25" as="geometry"/>
                </mxCell>
                <mxCell id="wGU2MZA3LwLIrjLMQGGw-188" value="" style="shape=cube;whiteSpace=wrap;html=1;boundedLbl=1;backgroundOutline=1;darkOpacity=0.05;darkOpacity2=0.1;size=10;rotation=90;strokeWidth=2;fillColor=#7EA6E0;fontStyle=1" parent="1" vertex="1">
                    <mxGeometry x="1774.5" y="630" width="30" height="25" as="geometry"/>
                </mxCell>
                <mxCell id="wGU2MZA3LwLIrjLMQGGw-189" value="10&lt;br style=&quot;font-size: 9px;&quot;&gt;" style="shape=cube;whiteSpace=wrap;html=1;boundedLbl=1;backgroundOutline=1;darkOpacity=0.05;darkOpacity2=0.1;size=10;rotation=90;horizontal=0;strokeWidth=2;fontSize=9;fillColor=#FFFF66;fontStyle=1" parent="1" vertex="1">
                    <mxGeometry x="1734.5" y="680" width="30" height="25" as="geometry"/>
                </mxCell>
                <mxCell id="wGU2MZA3LwLIrjLMQGGw-190" value="11" style="shape=cube;whiteSpace=wrap;html=1;boundedLbl=1;backgroundOutline=1;darkOpacity=0.05;darkOpacity2=0.1;size=10;rotation=90;fillColor=#FFFF66;strokeWidth=2;horizontal=0;fontStyle=1;fontSize=9;" parent="1" vertex="1">
                    <mxGeometry x="1749.5" y="680" width="30" height="25" as="geometry"/>
                </mxCell>
                <mxCell id="wGU2MZA3LwLIrjLMQGGw-191" value="5" style="shape=cube;whiteSpace=wrap;html=1;boundedLbl=1;backgroundOutline=1;darkOpacity=0.05;darkOpacity2=0.1;size=10;rotation=90;horizontal=0;strokeWidth=2;fontSize=9;fillColor=#FFFF66;fontStyle=1" parent="1" vertex="1">
                    <mxGeometry x="1734.5" y="660" width="30" height="25" as="geometry"/>
                </mxCell>
                <mxCell id="wGU2MZA3LwLIrjLMQGGw-192" value="6" style="shape=cube;whiteSpace=wrap;html=1;boundedLbl=1;backgroundOutline=1;darkOpacity=0.05;darkOpacity2=0.1;size=10;rotation=90;horizontal=0;strokeWidth=2;fontSize=9;fillColor=#FFFF66;fontStyle=1" parent="1" vertex="1">
                    <mxGeometry x="1749.5" y="660" width="30" height="25" as="geometry"/>
                </mxCell>
                <mxCell id="wGU2MZA3LwLIrjLMQGGw-193" value="0" style="shape=cube;whiteSpace=wrap;html=1;boundedLbl=1;backgroundOutline=1;darkOpacity=0.05;darkOpacity2=0.1;size=10;rotation=90;fillColor=#FFFF66;strokeWidth=2;horizontal=0;fontSize=9;fontStyle=1" parent="1" vertex="1">
                    <mxGeometry x="1734.5" y="640" width="30" height="25" as="geometry"/>
                </mxCell>
                <mxCell id="wGU2MZA3LwLIrjLMQGGw-194" value="1" style="shape=cube;whiteSpace=wrap;html=1;boundedLbl=1;backgroundOutline=1;darkOpacity=0.05;darkOpacity2=0.1;size=10;rotation=90;horizontal=0;strokeWidth=2;fontSize=9;fillColor=#FFFF66;fontStyle=1" parent="1" vertex="1">
                    <mxGeometry x="1749.5" y="640" width="30" height="25" as="geometry"/>
                </mxCell>
                <mxCell id="wGU2MZA3LwLIrjLMQGGw-195" value="13" style="shape=cube;whiteSpace=wrap;html=1;boundedLbl=1;backgroundOutline=1;darkOpacity=0.05;darkOpacity2=0.1;size=10;rotation=90;horizontal=0;strokeWidth=2;fontSize=9;fillColor=#FFFF66;fontStyle=1" parent="1" vertex="1">
                    <mxGeometry x="1764.5" y="700" width="30" height="25" as="geometry"/>
                </mxCell>
                <mxCell id="wGU2MZA3LwLIrjLMQGGw-196" value="7" style="shape=cube;whiteSpace=wrap;html=1;boundedLbl=1;backgroundOutline=1;darkOpacity=0.05;darkOpacity2=0.1;size=10;rotation=90;horizontal=0;strokeWidth=2;fontSize=9;fillColor=#FFFF66;fontStyle=1" parent="1" vertex="1">
                    <mxGeometry x="1764.5" y="680" width="30" height="25" as="geometry"/>
                </mxCell>
                <mxCell id="wGU2MZA3LwLIrjLMQGGw-197" value="7" style="shape=cube;whiteSpace=wrap;html=1;boundedLbl=1;backgroundOutline=1;darkOpacity=0.05;darkOpacity2=0.1;size=10;rotation=90;horizontal=0;strokeWidth=2;fontSize=9;fillColor=#FFFF66;fontStyle=1" parent="1" vertex="1">
                    <mxGeometry x="1764.5" y="660" width="30" height="25" as="geometry"/>
                </mxCell>
                <mxCell id="wGU2MZA3LwLIrjLMQGGw-198" value="2" style="shape=cube;whiteSpace=wrap;html=1;boundedLbl=1;backgroundOutline=1;darkOpacity=0.05;darkOpacity2=0.1;size=10;rotation=90;fillColor=#FFFF66;strokeWidth=2;horizontal=0;fontSize=9;fontStyle=1" parent="1" vertex="1">
                    <mxGeometry x="1764.5" y="640" width="30" height="25" as="geometry"/>
                </mxCell>
                <mxCell id="wGU2MZA3LwLIrjLMQGGw-199" value="" style="shape=cube;whiteSpace=wrap;html=1;boundedLbl=1;backgroundOutline=1;darkOpacity=0.05;darkOpacity2=0.1;size=10;rotation=90;strokeWidth=2;fillColor=#FF3399;" parent="1" vertex="1">
                    <mxGeometry x="1799.5" y="620" width="30" height="25" as="geometry"/>
                </mxCell>
                <mxCell id="wGU2MZA3LwLIrjLMQGGw-200" value="" style="shape=cube;whiteSpace=wrap;html=1;boundedLbl=1;backgroundOutline=1;darkOpacity=0.05;darkOpacity2=0.1;size=10;rotation=90;strokeWidth=2;fillColor=#7EA6E0;fontStyle=1" parent="1" vertex="1">
                    <mxGeometry x="1789.5" y="690" width="30" height="25" as="geometry"/>
                </mxCell>
                <mxCell id="wGU2MZA3LwLIrjLMQGGw-201" value="" style="shape=cube;whiteSpace=wrap;html=1;boundedLbl=1;backgroundOutline=1;darkOpacity=0.05;darkOpacity2=0.1;size=10;rotation=90;strokeWidth=2;fillColor=#7EA6E0;fontStyle=1" parent="1" vertex="1">
                    <mxGeometry x="1789.5" y="671" width="30" height="25" as="geometry"/>
                </mxCell>
                <mxCell id="wGU2MZA3LwLIrjLMQGGw-202" value="" style="shape=cube;whiteSpace=wrap;html=1;boundedLbl=1;backgroundOutline=1;darkOpacity=0.05;darkOpacity2=0.1;size=10;rotation=90;strokeWidth=2;fillColor=#7EA6E0;fontStyle=1" parent="1" vertex="1">
                    <mxGeometry x="1789.5" y="650" width="30" height="25" as="geometry"/>
                </mxCell>
                <mxCell id="wGU2MZA3LwLIrjLMQGGw-203" value="" style="shape=cube;whiteSpace=wrap;html=1;boundedLbl=1;backgroundOutline=1;darkOpacity=0.05;darkOpacity2=0.1;size=10;rotation=90;strokeWidth=2;fillColor=#7EA6E0;fontStyle=1" parent="1" vertex="1">
                    <mxGeometry x="1789.5" y="630" width="30" height="25" as="geometry"/>
                </mxCell>
                <mxCell id="wGU2MZA3LwLIrjLMQGGw-204" value="8" style="shape=cube;whiteSpace=wrap;html=1;boundedLbl=1;backgroundOutline=1;darkOpacity=0.05;darkOpacity2=0.1;size=10;rotation=90;horizontal=0;strokeWidth=2;fontSize=9;fillColor=#FFFF66;fontStyle=1" parent="1" vertex="1">
                    <mxGeometry x="1779.5" y="700" width="30" height="25" as="geometry"/>
                </mxCell>
                <mxCell id="wGU2MZA3LwLIrjLMQGGw-205" value="8" style="shape=cube;whiteSpace=wrap;html=1;boundedLbl=1;backgroundOutline=1;darkOpacity=0.05;darkOpacity2=0.1;size=10;rotation=90;horizontal=0;strokeWidth=2;fontSize=9;fillColor=#FFFF66;fontStyle=1" parent="1" vertex="1">
                    <mxGeometry x="1779.5" y="680" width="30" height="25" as="geometry"/>
                </mxCell>
                <mxCell id="wGU2MZA3LwLIrjLMQGGw-206" value="8" style="shape=cube;whiteSpace=wrap;html=1;boundedLbl=1;backgroundOutline=1;darkOpacity=0.05;darkOpacity2=0.1;size=10;rotation=90;horizontal=0;strokeWidth=2;fontSize=9;fillColor=#FFFF66;fontStyle=1" parent="1" vertex="1">
                    <mxGeometry x="1779.5" y="660" width="30" height="25" as="geometry"/>
                </mxCell>
                <mxCell id="wGU2MZA3LwLIrjLMQGGw-207" value="8" style="shape=cube;whiteSpace=wrap;html=1;boundedLbl=1;backgroundOutline=1;darkOpacity=0.05;darkOpacity2=0.1;size=10;rotation=90;horizontal=0;strokeWidth=2;fontSize=9;fillColor=#FFFF66;fontStyle=1" parent="1" vertex="1">
                    <mxGeometry x="1779.5" y="640" width="30" height="25" as="geometry"/>
                </mxCell>
                <mxCell id="wGU2MZA3LwLIrjLMQGGw-208" style="edgeStyle=none;rounded=0;orthogonalLoop=1;jettySize=auto;html=1;entryX=0;entryY=0;entryDx=5;entryDy=20;entryPerimeter=0;" parent="1" source="wGU2MZA3LwLIrjLMQGGw-209" target="wGU2MZA3LwLIrjLMQGGw-193" edge="1">
                    <mxGeometry relative="1" as="geometry">
                        <mxPoint x="1705" y="670" as="targetPoint"/>
                    </mxGeometry>
                </mxCell>
                <mxCell id="wGU2MZA3LwLIrjLMQGGw-209" value="+" style="ellipse;whiteSpace=wrap;html=1;aspect=fixed;strokeColor=#33001A;fillColor=#FFFF66;" parent="1" vertex="1">
                    <mxGeometry x="1581.5" y="530" width="20" height="20" as="geometry"/>
                </mxCell>
                <mxCell id="wGU2MZA3LwLIrjLMQGGw-210" style="edgeStyle=none;rounded=0;orthogonalLoop=1;jettySize=auto;html=1;entryX=0;entryY=0;entryDx=5;entryDy=20;entryPerimeter=0;" parent="1" source="wGU2MZA3LwLIrjLMQGGw-211" target="wGU2MZA3LwLIrjLMQGGw-186" edge="1">
                    <mxGeometry relative="1" as="geometry">
                        <mxPoint x="1635" y="640" as="targetPoint"/>
                    </mxGeometry>
                </mxCell>
                <mxCell id="wGU2MZA3LwLIrjLMQGGw-211" value="+" style="ellipse;whiteSpace=wrap;html=1;aspect=fixed;strokeColor=#33001A;fillColor=#7EA6E0;" parent="1" vertex="1">
                    <mxGeometry x="1636.5" y="530" width="20" height="20" as="geometry"/>
                </mxCell>
                <mxCell id="wGU2MZA3LwLIrjLMQGGw-212" style="edgeStyle=none;rounded=0;orthogonalLoop=1;jettySize=auto;html=1;entryX=0;entryY=0;entryDx=5;entryDy=20;entryPerimeter=0;" parent="1" source="wGU2MZA3LwLIrjLMQGGw-213" target="wGU2MZA3LwLIrjLMQGGw-183" edge="1">
                    <mxGeometry relative="1" as="geometry"/>
                </mxCell>
                <mxCell id="wGU2MZA3LwLIrjLMQGGw-213" value="+" style="ellipse;whiteSpace=wrap;html=1;aspect=fixed;strokeColor=#33001A;fillColor=#FF3399;" parent="1" vertex="1">
                    <mxGeometry x="1691.5" y="530" width="20" height="20" as="geometry"/>
                </mxCell>
                <mxCell id="wGU2MZA3LwLIrjLMQGGw-214" style="edgeStyle=none;rounded=0;orthogonalLoop=1;jettySize=auto;html=1;entryX=0;entryY=0;entryDx=5;entryDy=20;entryPerimeter=0;" parent="1" source="wGU2MZA3LwLIrjLMQGGw-215" target="wGU2MZA3LwLIrjLMQGGw-174" edge="1">
                    <mxGeometry relative="1" as="geometry"/>
                </mxCell>
                <mxCell id="wGU2MZA3LwLIrjLMQGGw-215" value="+" style="ellipse;whiteSpace=wrap;html=1;aspect=fixed;strokeColor=#33001A;fillColor=#D5E8D4;" parent="1" vertex="1">
                    <mxGeometry x="1746.5" y="530" width="20" height="20" as="geometry"/>
                </mxCell>
                <mxCell id="wGU2MZA3LwLIrjLMQGGw-216" value="*" style="ellipse;whiteSpace=wrap;html=1;aspect=fixed;strokeColor=#33001A;fillColor=#FF0000;verticalAlign=top;fontStyle=1;strokeWidth=2;" parent="1" vertex="1">
                    <mxGeometry x="1537" y="380" width="20" height="20" as="geometry"/>
                </mxCell>
                <mxCell id="wGU2MZA3LwLIrjLMQGGw-217" value="*" style="ellipse;whiteSpace=wrap;html=1;aspect=fixed;strokeColor=#33001A;fillColor=#00FF00;verticalAlign=top;fontStyle=1;strokeWidth=2;" parent="1" vertex="1">
                    <mxGeometry x="1664" y="380" width="20" height="20" as="geometry"/>
                </mxCell>
                <mxCell id="wGU2MZA3LwLIrjLMQGGw-218" value="*" style="ellipse;whiteSpace=wrap;html=1;aspect=fixed;strokeColor=#33001A;fillColor=#0000FF;horizontal=1;verticalAlign=top;fontStyle=1;strokeWidth=2;" parent="1" vertex="1">
                    <mxGeometry x="1799.5" y="380" width="20" height="20" as="geometry"/>
                </mxCell>
                <mxCell id="wGU2MZA3LwLIrjLMQGGw-219" value="" style="shape=cube;whiteSpace=wrap;html=1;boundedLbl=1;backgroundOutline=1;darkOpacity=0.05;darkOpacity2=0.1;size=10;rotation=90;strokeWidth=2;fillColor=#0000FF;strokeColor=#33001A;" parent="1" vertex="1">
                    <mxGeometry x="1380" y="280" width="30" height="25" as="geometry"/>
                </mxCell>
                <mxCell id="wGU2MZA3LwLIrjLMQGGw-220" value="" style="shape=cube;whiteSpace=wrap;html=1;boundedLbl=1;backgroundOutline=1;darkOpacity=0.05;darkOpacity2=0.1;size=10;rotation=90;fillColor=#0000FF;strokeWidth=2;strokeColor=#33001A;" parent="1" vertex="1">
                    <mxGeometry x="1395" y="300" width="30" height="25" as="geometry"/>
                </mxCell>
                <mxCell id="wGU2MZA3LwLIrjLMQGGw-221" value="" style="shape=cube;whiteSpace=wrap;html=1;boundedLbl=1;backgroundOutline=1;darkOpacity=0.05;darkOpacity2=0.1;size=10;rotation=90;strokeWidth=2;fillColor=#00FF00;" parent="1" vertex="1">
                    <mxGeometry x="1370" y="290" width="30" height="25" as="geometry"/>
                </mxCell>
                <mxCell id="wGU2MZA3LwLIrjLMQGGw-222" value="" style="shape=cube;whiteSpace=wrap;html=1;boundedLbl=1;backgroundOutline=1;darkOpacity=0.05;darkOpacity2=0.1;size=10;rotation=90;fillColor=#0000FF;strokeWidth=2;strokeColor=#33001A;" parent="1" vertex="1">
                    <mxGeometry x="1395" y="280" width="30" height="25" as="geometry"/>
                </mxCell>
                <mxCell id="wGU2MZA3LwLIrjLMQGGw-223" value="" style="shape=cube;whiteSpace=wrap;html=1;boundedLbl=1;backgroundOutline=1;darkOpacity=0.05;darkOpacity2=0.1;size=10;rotation=90;fillColor=#00FF00;strokeWidth=2;" parent="1" vertex="1">
                    <mxGeometry x="1385" y="310" width="30" height="25" as="geometry"/>
                </mxCell>
                <mxCell id="wGU2MZA3LwLIrjLMQGGw-224" value="" style="shape=cube;whiteSpace=wrap;html=1;boundedLbl=1;backgroundOutline=1;darkOpacity=0.05;darkOpacity2=0.1;size=10;rotation=90;fillColor=#00FF00;strokeWidth=2;" parent="1" vertex="1">
                    <mxGeometry x="1385" y="290" width="30" height="25" as="geometry"/>
                </mxCell>
                <mxCell id="wGU2MZA3LwLIrjLMQGGw-225" value="2" style="shape=cube;whiteSpace=wrap;html=1;boundedLbl=1;backgroundOutline=1;darkOpacity=0.05;darkOpacity2=0.1;size=10;rotation=90;strokeWidth=2;fillColor=#FF0000;fontStyle=1;horizontal=0;" parent="1" vertex="1">
                    <mxGeometry x="1360" y="320" width="30" height="25" as="geometry"/>
                </mxCell>
                <mxCell id="wGU2MZA3LwLIrjLMQGGw-226" value="0" style="shape=cube;whiteSpace=wrap;html=1;boundedLbl=1;backgroundOutline=1;darkOpacity=0.05;darkOpacity2=0.1;size=10;rotation=90;strokeWidth=2;fillColor=#FF0000;fontStyle=1;horizontal=0;" parent="1" vertex="1">
                    <mxGeometry x="1360" y="300" width="30" height="25" as="geometry"/>
                </mxCell>
                <mxCell id="wGU2MZA3LwLIrjLMQGGw-227" value="3" style="shape=cube;whiteSpace=wrap;html=1;boundedLbl=1;backgroundOutline=1;darkOpacity=0.05;darkOpacity2=0.1;size=10;rotation=90;strokeWidth=2;fillColor=#FF0000;fontStyle=1;horizontal=0;" parent="1" vertex="1">
                    <mxGeometry x="1375" y="320" width="30" height="25" as="geometry"/>
                </mxCell>
                <mxCell id="wGU2MZA3LwLIrjLMQGGw-228" value="1" style="shape=cube;whiteSpace=wrap;html=1;boundedLbl=1;backgroundOutline=1;darkOpacity=0.05;darkOpacity2=0.1;size=10;rotation=90;strokeWidth=2;fillColor=#FF0000;fontStyle=1;horizontal=0;" parent="1" vertex="1">
                    <mxGeometry x="1375" y="300" width="30" height="25" as="geometry"/>
                </mxCell>
                <mxCell id="wGU2MZA3LwLIrjLMQGGw-229" value="*" style="ellipse;whiteSpace=wrap;html=1;aspect=fixed;strokeColor=#000000;fillColor=#FFFFFF;verticalAlign=top;fontColor=#333333;strokeWidth=2;fontStyle=1" parent="1" vertex="1">
                    <mxGeometry x="1385" y="230" width="20" height="20" as="geometry"/>
                </mxCell>
                <mxCell id="wGU2MZA3LwLIrjLMQGGw-230" value="" style="shape=cube;whiteSpace=wrap;html=1;boundedLbl=1;backgroundOutline=1;darkOpacity=0.05;darkOpacity2=0.1;size=10;rotation=90;strokeWidth=2;fillColor=#0000FF;strokeColor=#33001A;" parent="1" vertex="1">
                    <mxGeometry x="1380" y="350" width="30" height="25" as="geometry"/>
                </mxCell>
                <mxCell id="wGU2MZA3LwLIrjLMQGGw-231" value="" style="shape=cube;whiteSpace=wrap;html=1;boundedLbl=1;backgroundOutline=1;darkOpacity=0.05;darkOpacity2=0.1;size=10;rotation=90;fillColor=#0000FF;strokeWidth=2;strokeColor=#33001A;" parent="1" vertex="1">
                    <mxGeometry x="1395" y="370" width="30" height="25" as="geometry"/>
                </mxCell>
                <mxCell id="wGU2MZA3LwLIrjLMQGGw-232" value="" style="shape=cube;whiteSpace=wrap;html=1;boundedLbl=1;backgroundOutline=1;darkOpacity=0.05;darkOpacity2=0.1;size=10;rotation=90;strokeWidth=2;fillColor=#00FF00;" parent="1" vertex="1">
                    <mxGeometry x="1370" y="360" width="30" height="25" as="geometry"/>
                </mxCell>
                <mxCell id="wGU2MZA3LwLIrjLMQGGw-233" value="" style="shape=cube;whiteSpace=wrap;html=1;boundedLbl=1;backgroundOutline=1;darkOpacity=0.05;darkOpacity2=0.1;size=10;rotation=90;fillColor=#0000FF;strokeWidth=2;strokeColor=#33001A;" parent="1" vertex="1">
                    <mxGeometry x="1395" y="350" width="30" height="25" as="geometry"/>
                </mxCell>
                <mxCell id="wGU2MZA3LwLIrjLMQGGw-234" value="" style="shape=cube;whiteSpace=wrap;html=1;boundedLbl=1;backgroundOutline=1;darkOpacity=0.05;darkOpacity2=0.1;size=10;rotation=90;fillColor=#00FF00;strokeWidth=2;" parent="1" vertex="1">
                    <mxGeometry x="1385" y="380" width="30" height="25" as="geometry"/>
                </mxCell>
                <mxCell id="wGU2MZA3LwLIrjLMQGGw-235" value="" style="shape=cube;whiteSpace=wrap;html=1;boundedLbl=1;backgroundOutline=1;darkOpacity=0.05;darkOpacity2=0.1;size=10;rotation=90;fillColor=#00FF00;strokeWidth=2;" parent="1" vertex="1">
                    <mxGeometry x="1385" y="360" width="30" height="25" as="geometry"/>
                </mxCell>
                <mxCell id="wGU2MZA3LwLIrjLMQGGw-236" value="2" style="shape=cube;whiteSpace=wrap;html=1;boundedLbl=1;backgroundOutline=1;darkOpacity=0.05;darkOpacity2=0.1;size=10;rotation=90;strokeWidth=2;fillColor=#FF0000;fontStyle=1;horizontal=0;" parent="1" vertex="1">
                    <mxGeometry x="1360" y="390" width="30" height="25" as="geometry"/>
                </mxCell>
                <mxCell id="wGU2MZA3LwLIrjLMQGGw-237" value="0" style="shape=cube;whiteSpace=wrap;html=1;boundedLbl=1;backgroundOutline=1;darkOpacity=0.05;darkOpacity2=0.1;size=10;rotation=90;strokeWidth=2;fillColor=#FF0000;fontStyle=1;horizontal=0;" parent="1" vertex="1">
                    <mxGeometry x="1360" y="370" width="30" height="25" as="geometry"/>
                </mxCell>
                <mxCell id="wGU2MZA3LwLIrjLMQGGw-238" value="3" style="shape=cube;whiteSpace=wrap;html=1;boundedLbl=1;backgroundOutline=1;darkOpacity=0.05;darkOpacity2=0.1;size=10;rotation=90;strokeWidth=2;fillColor=#FF0000;fontStyle=1;horizontal=0;" parent="1" vertex="1">
                    <mxGeometry x="1375" y="390" width="30" height="25" as="geometry"/>
                </mxCell>
                <mxCell id="wGU2MZA3LwLIrjLMQGGw-239" value="1" style="shape=cube;whiteSpace=wrap;html=1;boundedLbl=1;backgroundOutline=1;darkOpacity=0.05;darkOpacity2=0.1;size=10;rotation=90;strokeWidth=2;fillColor=#FF0000;fontStyle=1;horizontal=0;" parent="1" vertex="1">
                    <mxGeometry x="1375" y="370" width="30" height="25" as="geometry"/>
                </mxCell>
                <mxCell id="wGU2MZA3LwLIrjLMQGGw-240" value="" style="shape=cube;whiteSpace=wrap;html=1;boundedLbl=1;backgroundOutline=1;darkOpacity=0.05;darkOpacity2=0.1;size=10;rotation=90;strokeWidth=2;fillColor=#0000FF;strokeColor=#33001A;" parent="1" vertex="1">
                    <mxGeometry x="1380" y="417.5" width="30" height="25" as="geometry"/>
                </mxCell>
                <mxCell id="wGU2MZA3LwLIrjLMQGGw-241" value="" style="shape=cube;whiteSpace=wrap;html=1;boundedLbl=1;backgroundOutline=1;darkOpacity=0.05;darkOpacity2=0.1;size=10;rotation=90;fillColor=#0000FF;strokeWidth=2;strokeColor=#33001A;" parent="1" vertex="1">
                    <mxGeometry x="1395" y="437.5" width="30" height="25" as="geometry"/>
                </mxCell>
                <mxCell id="wGU2MZA3LwLIrjLMQGGw-242" value="" style="shape=cube;whiteSpace=wrap;html=1;boundedLbl=1;backgroundOutline=1;darkOpacity=0.05;darkOpacity2=0.1;size=10;rotation=90;strokeWidth=2;fillColor=#00FF00;" parent="1" vertex="1">
                    <mxGeometry x="1370" y="427.5" width="30" height="25" as="geometry"/>
                </mxCell>
                <mxCell id="wGU2MZA3LwLIrjLMQGGw-243" value="" style="shape=cube;whiteSpace=wrap;html=1;boundedLbl=1;backgroundOutline=1;darkOpacity=0.05;darkOpacity2=0.1;size=10;rotation=90;fillColor=#0000FF;strokeWidth=2;strokeColor=#33001A;" parent="1" vertex="1">
                    <mxGeometry x="1395" y="417.5" width="30" height="25" as="geometry"/>
                </mxCell>
                <mxCell id="wGU2MZA3LwLIrjLMQGGw-244" value="" style="shape=cube;whiteSpace=wrap;html=1;boundedLbl=1;backgroundOutline=1;darkOpacity=0.05;darkOpacity2=0.1;size=10;rotation=90;fillColor=#00FF00;strokeWidth=2;" parent="1" vertex="1">
                    <mxGeometry x="1385" y="447.5" width="30" height="25" as="geometry"/>
                </mxCell>
                <mxCell id="wGU2MZA3LwLIrjLMQGGw-245" value="" style="shape=cube;whiteSpace=wrap;html=1;boundedLbl=1;backgroundOutline=1;darkOpacity=0.05;darkOpacity2=0.1;size=10;rotation=90;fillColor=#00FF00;strokeWidth=2;" parent="1" vertex="1">
                    <mxGeometry x="1385" y="427.5" width="30" height="25" as="geometry"/>
                </mxCell>
                <mxCell id="wGU2MZA3LwLIrjLMQGGw-246" value="2" style="shape=cube;whiteSpace=wrap;html=1;boundedLbl=1;backgroundOutline=1;darkOpacity=0.05;darkOpacity2=0.1;size=10;rotation=90;strokeWidth=2;fillColor=#FF0000;fontStyle=1;horizontal=0;" parent="1" vertex="1">
                    <mxGeometry x="1360" y="457.5" width="30" height="25" as="geometry"/>
                </mxCell>
                <mxCell id="wGU2MZA3LwLIrjLMQGGw-247" value="0" style="shape=cube;whiteSpace=wrap;html=1;boundedLbl=1;backgroundOutline=1;darkOpacity=0.05;darkOpacity2=0.1;size=10;rotation=90;strokeWidth=2;fillColor=#FF0000;fontStyle=1;horizontal=0;" parent="1" vertex="1">
                    <mxGeometry x="1360" y="437.5" width="30" height="25" as="geometry"/>
                </mxCell>
                <mxCell id="wGU2MZA3LwLIrjLMQGGw-248" value="3" style="shape=cube;whiteSpace=wrap;html=1;boundedLbl=1;backgroundOutline=1;darkOpacity=0.05;darkOpacity2=0.1;size=10;rotation=90;strokeWidth=2;fillColor=#FF0000;fontStyle=1;horizontal=0;" parent="1" vertex="1">
                    <mxGeometry x="1375" y="457.5" width="30" height="25" as="geometry"/>
                </mxCell>
                <mxCell id="wGU2MZA3LwLIrjLMQGGw-249" value="1" style="shape=cube;whiteSpace=wrap;html=1;boundedLbl=1;backgroundOutline=1;darkOpacity=0.05;darkOpacity2=0.1;size=10;rotation=90;strokeWidth=2;fillColor=#FF0000;fontStyle=1;horizontal=0;" parent="1" vertex="1">
                    <mxGeometry x="1375" y="437.5" width="30" height="25" as="geometry"/>
                </mxCell>
                <mxCell id="wGU2MZA3LwLIrjLMQGGw-250" style="edgeStyle=none;rounded=1;orthogonalLoop=1;jettySize=auto;html=1;strokeWidth=2;" parent="1" edge="1">
                    <mxGeometry relative="1" as="geometry">
                        <mxPoint x="1725" y="680" as="targetPoint"/>
                        <mxPoint x="1390" y="560" as="sourcePoint"/>
                        <Array as="points">
                            <mxPoint x="1390" y="680"/>
                        </Array>
                    </mxGeometry>
                </mxCell>
                <mxCell id="wGU2MZA3LwLIrjLMQGGw-251" value="Filter 0" style="text;html=1;strokeColor=none;fillColor=none;align=center;verticalAlign=middle;whiteSpace=wrap;rounded=0;fontStyle=1" parent="1" vertex="1">
                    <mxGeometry x="1285" y="317.5" width="60" height="30" as="geometry"/>
                </mxCell>
                <mxCell id="wGU2MZA3LwLIrjLMQGGw-252" value="Filter 1" style="text;html=1;strokeColor=none;fillColor=none;align=center;verticalAlign=middle;whiteSpace=wrap;rounded=0;fontStyle=1" parent="1" vertex="1">
                    <mxGeometry x="1285" y="375" width="60" height="30" as="geometry"/>
                </mxCell>
                <mxCell id="wGU2MZA3LwLIrjLMQGGw-253" value="Filter 2" style="text;html=1;strokeColor=none;fillColor=none;align=center;verticalAlign=middle;whiteSpace=wrap;rounded=0;fontStyle=1" parent="1" vertex="1">
                    <mxGeometry x="1285" y="447.5" width="60" height="30" as="geometry"/>
                </mxCell>
                <mxCell id="wGU2MZA3LwLIrjLMQGGw-254" value="Filter 3" style="text;html=1;strokeColor=none;fillColor=none;align=center;verticalAlign=middle;whiteSpace=wrap;rounded=0;fontStyle=1" parent="1" vertex="1">
                    <mxGeometry x="1285" y="510" width="60" height="30" as="geometry"/>
                </mxCell>
                <mxCell id="wGU2MZA3LwLIrjLMQGGw-255" value="Conv2D" style="text;html=1;strokeColor=none;fillColor=none;align=center;verticalAlign=middle;whiteSpace=wrap;rounded=0;fontStyle=1" parent="1" vertex="1">
                    <mxGeometry x="1315" y="225" width="60" height="30" as="geometry"/>
                </mxCell>
                <mxCell id="wGU2MZA3LwLIrjLMQGGw-256" value="" style="shape=curlyBracket;whiteSpace=wrap;html=1;rounded=1;flipH=1;strokeColor=#000000;strokeWidth=2;fillColor=#FFFFFF;" parent="1" vertex="1">
                    <mxGeometry x="1885" y="270" width="20" height="100" as="geometry"/>
                </mxCell>
                <mxCell id="wGU2MZA3LwLIrjLMQGGw-257" value="" style="shape=curlyBracket;whiteSpace=wrap;html=1;rounded=1;flipH=1;strokeColor=#000000;strokeWidth=2;fillColor=#FFFFFF;" parent="1" vertex="1">
                    <mxGeometry x="1885" y="375" width="20" height="95" as="geometry"/>
                </mxCell>
                <mxCell id="wGU2MZA3LwLIrjLMQGGw-258" value="" style="shape=curlyBracket;whiteSpace=wrap;html=1;rounded=1;flipH=1;strokeColor=#000000;strokeWidth=2;fillColor=#FFFFFF;" parent="1" vertex="1">
                    <mxGeometry x="1885" y="480.63" width="20" height="68.75" as="geometry"/>
                </mxCell>
                <mxCell id="wGU2MZA3LwLIrjLMQGGw-259" value="Convolution with Filter's 0 - 3" style="text;html=1;strokeColor=none;fillColor=none;align=center;verticalAlign=middle;whiteSpace=wrap;rounded=0;fontStyle=1" parent="1" vertex="1">
                    <mxGeometry x="1915" y="413.75" width="100" height="30" as="geometry"/>
                </mxCell>
                <mxCell id="wGU2MZA3LwLIrjLMQGGw-260" value="Feature Maps" style="text;html=1;strokeColor=none;fillColor=none;align=center;verticalAlign=middle;whiteSpace=wrap;rounded=0;fontStyle=1" parent="1" vertex="1">
                    <mxGeometry x="1915" y="300" width="60" height="30" as="geometry"/>
                </mxCell>
                <mxCell id="wGU2MZA3LwLIrjLMQGGw-261" value="Partial Sum Accumulation" style="text;html=1;strokeColor=none;fillColor=none;align=center;verticalAlign=middle;whiteSpace=wrap;rounded=0;fontStyle=1" parent="1" vertex="1">
                    <mxGeometry x="1915" y="502.5" width="100" height="30" as="geometry"/>
                </mxCell>
                <mxCell id="wGU2MZA3LwLIrjLMQGGw-262" value="" style="shape=curlyBracket;whiteSpace=wrap;html=1;rounded=1;flipH=1;strokeColor=#000000;strokeWidth=2;fillColor=#FFFFFF;" parent="1" vertex="1">
                    <mxGeometry x="1477" y="100" width="20" height="75" as="geometry"/>
                </mxCell>
                <mxCell id="wGU2MZA3LwLIrjLMQGGw-263" value="Input Feature Maps" style="text;html=1;strokeColor=none;fillColor=none;align=center;verticalAlign=middle;whiteSpace=wrap;rounded=0;fontStyle=1" parent="1" vertex="1">
                    <mxGeometry x="1497" y="125" width="60" height="30" as="geometry"/>
                </mxCell>
                <mxCell id="wGU2MZA3LwLIrjLMQGGw-264" value="" style="shape=curlyBracket;whiteSpace=wrap;html=1;rounded=1;flipH=1;strokeColor=#000000;strokeWidth=2;fillColor=#FFFFFF;" parent="1" vertex="1">
                    <mxGeometry x="1855" y="596" width="20" height="104" as="geometry"/>
                </mxCell>
                <mxCell id="wGU2MZA3LwLIrjLMQGGw-265" value="Output Feature Map" style="text;html=1;strokeColor=none;fillColor=none;align=center;verticalAlign=middle;whiteSpace=wrap;rounded=0;fontStyle=1" parent="1" vertex="1">
                    <mxGeometry x="1875" y="621" width="60" height="30" as="geometry"/>
                </mxCell>
            </root>
        </mxGraphModel>
    </diagram>
</mxfile>